<svg id="Layer_1" xmlns="http://www.w3.org/2000/svg" width="200" height="132" viewBox="0 0 200 132"><style>.st0{fill:#231f20}.st1{fill:#f8e04e}.st2{stroke:#000}.st2,.st3,.st4{fill:none;stroke-miterlimit:10}.st3{stroke-width:2;stroke:#000}.st4{stroke:#f78985}.st5{fill:#f78985}.st6{fill:#444}.st7,.st8{fill:none;stroke:#444;stroke-miterlimit:10}.st8{stroke:#000;stroke-width:1.5}.st9{fill:#fff}</style><path class="st0" d="M24.1 8v7h10V8h-10zm8.2 1l-3 2.5-3-2.5h6zm-7.2 5V9.4l4 3.3 4-3.3V14h-8zM11.3 11.8l3-3-.7-.7-3 3-3-3-.7.7 3 3-3 3.1.7.7 3-3.1 3 3.1.7-.7z"/><path class="st1" d="M108 3v13H95"/><path class="st2" d="M143.5 8.5h6v6h-6zM142.5 6.5h8v2h-8zM145.5 4.5h2v2h-2z"/><path class="st3" d="M174 14h8"/><path class="st2" d="M189 8.5h9M190.5 9v5c0 .3.2.5.5.5h5c.3 0 .5-.2.5-.5V9M192.5 7.5h2v1h-2z"/><path d="M197.3 34.2l-2.2 2.1.7.7 2.2-2.1zM197.3 29l-7.3 7.3.7.7 7.3-7.3zM197.3 24L185 36.3l.7.7L198 24.7z"/><path class="st2" d="M7 26.5c-.3 0-.5 0-.5.3v9c0 .3.2.7.5.7h6.3c.1 0 .3-.2.4-.3l2.7-2.8c.1-.1.1-.3.1-.4v-6.3c0-.3-.2-.3-.5-.3h-3M13 29l-3.6-3.6"/><circle cx="9.5" cy="25.5" r="1.5"/><path class="st4" d="M25 26.5c-.3 0-.5 0-.5.3v9c0 .3.2.7.5.7h6.3c.1 0 .3-.2.4-.3l2.7-2.8c.1-.1.1-.3.1-.4v-6.3c0-.3-.2-.3-.5-.3h-3"/><path class="st5" d="M31 37v-4h4z"/><path d="M13 37v-4h4z"/><path class="st4" d="M31 29l-3.6-3.6"/><circle class="st5" cx="27.5" cy="25.5" r="1.5"/><path class="st6" d="M51.8 29.4h-2.9c-1.5-.2-3.1-1.1-3.1-2 0-.6.5-1.1 1.2-1.1.8 0 1.6.4 2.1 1l.7-1.2c-.6-.8-1.6-1.2-2.6-1.2-1.6 0-2.6 1.1-2.6 2.5 0 .8.5 1.6.9 2h-2.7v.8h3.9c1.1.4 2.2.3 2.2 1.2 0 .6-.4 1.2-1.4 1.2s-1.8-.6-2.3-1.2l-.7 1.2c.5.9 1.5 1.4 2.8 1.4 2 0 2.9-1.2 2.9-2.7 0-.5-.1-.7-.3-.9h1.9v-1z"/><path d="M82 34.7c.9 0 1.6-.7 1.6-1.6h-3.2c0 .8.7 1.6 1.6 1.6zM82.2 26.1c.7.1 1.1.8 1.2 1.4l.4 2.4c.1.5.3.8.5 1.1h-4.5c.2-.3.4-.6.5-1.1l.4-2.4c.1-.6.5-1.3 1.2-1.4h.3m0-1h-.4c-1.2.1-1.9 1.1-2.1 2.2l-.4 2.4c-.3 1.1-1.3.8-1.3 1.6 0 .3.2.5.5.5h6.8c.3 0 .5-.2.5-.5 0-.9-1-.6-1.2-1.7l-.4-2.4c-.1-1.1-.8-2-2-2.1z"/><path class="st6" d="M69.3 28.3c.2-.2.2-.5.3-.9.1-1-.7-1.9-1.7-1.9-.6 0-1.1.2-1.5.7 1.2.3 2.3 1 2.9 2.1zM63.7 26.2c-.3-.4-.9-.7-1.5-.7-1 .1-1.7.8-1.7 1.9 0 .3.1.6.3.9.6-1.1 1.7-1.8 2.9-2.1z"/><circle class="st7" cx="65" cy="30.9" r="3.5"/><path class="st7" d="M64.5 30v1.5H66"/><path class="st2" d="M159.5 7.5h7v7h-7z"/><path class="st6" d="M50.2 10.2c.3-.4.6-1 .6-1.7 0-1.4-1.2-2.6-2.6-2.6H45v9h3.9c1.4 0 2.6-1.2 2.6-2.6-.1-.8-.6-1.6-1.3-2.1zm-3.3-2.9h1c.6 0 1 .6 1 1.3s-.5 1.3-1 1.3h-1V7.3zm1.6 6.4h-1.6v-2.6h1.6c.6 0 1.1.6 1.1 1.3s-.5 1.3-1.1 1.3zM64 6v1h1.7l-2.3 7H62v1h5v-1h-1.6l2.3-7H69V6zM83.8 6H85v4.1c0 1.6-1.3 2.7-3 2.7s-3-1.2-3-2.7V6h1.2v4.1c0 .4.2.7.5 1.1s.9.5 1.3.5.9-.2 1.3-.5c.3-.4.5-.7.5-1.1V6zM79 14h6v1h-6v-1z"/><path d="M95 25v2h3v7h2v-7h3v-2zM110 28l-2.5 3-2.5-3h5z"/><path class="st8" d="M124 6h8M124 10h8M124 14h8M124 26.3h8M124 30h8M124 33.8h8"/><path class="st3" d="M121 6h2M121 10h2M121 14h2"/><path d="M121 32.6h1.3v.6H121v.6h1.3v.6H121v.6h2v-2.9h-2zM121 28.9h1.3v.5l-1.3.5v1.4h2v-.7h-1.3v-.4l1.3-.5v-1.3h-2zM121.7 27.5h.6v-2.3H121v.6h.7zM139.8 32.6h8.3V34h-8.3zM142.5 30.6h3.2l.5 1.3h1.4l-2.7-7h-1.6l-2.8 7h1.4l.6-1.3zm1.6-4.4l1.2 3.4h-2.5l1.3-3.4zM157 25h7.4v9H157z"/><g><path class="st9" d="M162.8 34l-.5-1.4H159l-.5 1.4h-1.4l2.9-7.3h1.6l2.8 7.3h-1.6zm-2.1-6l-1.2 3.4h2.5l-1.3-3.4z"/></g></svg>