<?xml version="1.0" encoding="utf-8"?>
<!-- Generator: Adobe Illustrator 21.0.2, SVG Export Plug-In . SVG Version: 6.00 Build 0)  -->
<svg version="1.1" id="Layer_1" xmlns="http://www.w3.org/2000/svg" xmlns:xlink="http://www.w3.org/1999/xlink" x="0px" y="0px"
	 width="200px" height="875px" viewBox="0 0 200 875" style="enable-background:new 0 0 200 875;" xml:space="preserve">
<style type="text/css">
	.st0{fill:none;stroke:#39AEF1;stroke-width:0.6;stroke-miterlimit:10;}
	.st1{font-family:'LaoMN';}
	.st2{font-size:16px;}
	.st3{fill:none;stroke:#ADADAD;stroke-width:1.2;stroke-miterlimit:10;}
	.st4{fill:none;stroke:#ADADAD;stroke-width:1.3;stroke-miterlimit:10;}
	.st5{fill:none;stroke:#39AEF1;stroke-width:1.3;stroke-miterlimit:10;}
	.st6{fill:none;stroke:#39AEF1;stroke-width:1.35;stroke-miterlimit:10;}
	.st7{fill:none;stroke:#39AEF1;stroke-width:1.5;stroke-miterlimit:10;}
	.st8{fill:none;stroke:#ADADAD;stroke-width:1.5;stroke-miterlimit:10;}
	.st9{display:none;fill:none;stroke:#CECECE;stroke-miterlimit:10;}
	.st10{fill:none;stroke:#20AFEF;stroke-miterlimit:10;}
	.st11{fill:none;stroke:#E8901A;stroke-width:1.3;stroke-miterlimit:10;}
	.st12{fill:none;stroke:#F71C08;stroke-miterlimit:10;}
	.st13{fill:#F71C08;}
	.st14{fill:none;stroke:#F71C08;stroke-width:0.8;stroke-miterlimit:10;}
	.st15{fill:none;stroke:#FB9633;stroke-miterlimit:10;}
	.st16{fill:#FB9633;}
	.st17{enable-background:new    ;}
	.st18{fill:#FB9633;stroke:#FB9633;stroke-width:0.6;stroke-miterlimit:10;}
	.st19{fill:none;stroke:#448BE3;stroke-miterlimit:10;}
	.st20{fill:#448BE3;}
	.st21{fill:#448BE3;stroke:#448BE3;stroke-width:0.5;stroke-miterlimit:10;}
	.st22{fill:none;stroke:#F2BC36;stroke-miterlimit:10;}
	.st23{fill:#F2BC36;}
	.st24{fill:none;stroke:#D24625;stroke-miterlimit:10;}
	.st25{fill:#D24625;}
	.st26{fill:none;stroke:#1EA4E0;stroke-miterlimit:10;}
	.st27{fill:#1EA4E0;}
	.st28{fill:none;stroke:#1EA4E0;stroke-width:0.9;stroke-miterlimit:10;}
	.st29{fill:none;stroke:#1FCEDB;stroke-miterlimit:10;}
	.st30{fill:#1FCEDB;}
	.st31{fill:none;stroke:#1FCEDB;stroke-width:1.2;stroke-miterlimit:10;}
	.st32{fill:none;stroke:#66C639;stroke-miterlimit:10;}
	.st33{fill:#66C639;}
	.st34{fill:none;stroke:#66C639;stroke-width:1.5;stroke-miterlimit:10;}
	.st35{fill:none;stroke:#2B63A5;stroke-miterlimit:10;}
	.st36{fill:#2B63A5;}
	.st37{fill:none;stroke:#FC0B2D;stroke-miterlimit:10;}
	.st38{fill:#FC0B2D;}
	.st39{fill:none;stroke:#39C632;stroke-miterlimit:10;}
	.st40{fill:#39C632;}
	.st41{fill:none;stroke:#39C632;stroke-width:0.9;stroke-miterlimit:10;}
	.st42{fill:none;stroke:#A3A3A3;stroke-miterlimit:10;}
	.st43{fill:#A3A3A3;}
	.st44{fill:none;stroke:#ADADAD;stroke-miterlimit:10;}
	.st45{fill:#ADADAD;}
	.st46{fill:none;stroke:#3FA1DA;stroke-width:1.4;stroke-miterlimit:10;}
	.st47{fill:#8473FF;}
	.st48{fill:none;stroke:#8473FF;stroke-miterlimit:10;}
	.st49{fill:none;stroke:#F95565;stroke-miterlimit:10;}
	.st50{fill:none;stroke:#F95565;stroke-linejoin:bevel;stroke-miterlimit:10;}
	.st51{fill:none;stroke:#FE6C74;stroke-miterlimit:10;}
	.st52{fill:none;stroke:#FC9B4C;stroke-miterlimit:10;}
	.st53{fill:#FC9B4C;}
	.st54{fill:#66C8FF;}
	.st55{fill:none;stroke:#66C8FF;stroke-miterlimit:10;}
	.st56{fill:#E165E5;}
	.st57{fill:#FFFFFF;}
	.st58{fill:none;stroke:#E165E5;stroke-miterlimit:10;}
	.st59{fill:none;stroke:#4CA3D8;stroke-miterlimit:10;}
	.st60{fill:#4CA3D8;}
	.st61{fill:none;stroke:#52A7DB;stroke-miterlimit:10;}
	.st62{fill:#52A7DB;}
	.st63{fill:none;stroke:#93D488;stroke-miterlimit:10;}
	.st64{fill:#93D488;}
	.st65{fill:none;stroke:#81D16F;stroke-miterlimit:10;}
	.st66{fill:#81D16F;}
	.st67{fill:none;stroke:#DA68DD;stroke-miterlimit:10;}
	.st68{fill:none;stroke:#DC68E0;stroke-miterlimit:10;}
	.st69{fill:none;stroke:#4DA5DB;stroke-miterlimit:10;}
	.st70{fill:#4DA5DB;}
	.st71{fill:none;stroke:#D6AF56;stroke-miterlimit:10;}
	.st72{fill:#D6AF56;}
	.st73{fill:none;stroke:#DDB55E;stroke-miterlimit:10;}
	.st74{fill:#DDB55E;}
	.st75{fill:none;stroke:#54CCAD;stroke-miterlimit:10;}
	.st76{fill:#50CCAB;}
	.st77{fill:none;stroke:#50CCAB;stroke-miterlimit:10;}
	.st78{fill:none;stroke:#3FA1DA;stroke-width:1.5;stroke-miterlimit:10;}
	.st79{fill:none;stroke:#7A7A7A;stroke-width:1.5;stroke-miterlimit:10;}
	.st80{fill:#BFBFBF;}
	.st81{fill:#D8D8D8;}
	.st82{fill:none;stroke:#ADADAD;stroke-width:0.8;stroke-miterlimit:10;}
	.st83{fill:none;stroke:#FE6C74;stroke-width:0.8;stroke-miterlimit:10;}
	.st84{fill:none;stroke:#93D488;stroke-width:0.8;stroke-miterlimit:10;}
	.st85{fill:none;stroke:#FEB167;stroke-miterlimit:10;}
	.st86{fill:none;stroke:#FEB167;stroke-width:0.8;stroke-miterlimit:10;}
	.st87{fill:#ADADAD;stroke:#ADADAD;stroke-miterlimit:10;}
	.st88{fill:none;stroke:#39AEF1;stroke-width:1.7;stroke-miterlimit:10;}
	.st89{fill:#39AEF1;}
	.st90{fill:none;stroke:#39AEF1;stroke-width:0.8;stroke-miterlimit:10;}
	.st91{fill:none;stroke:#39AEF1;stroke-miterlimit:10;}
	.st92{fill:#CECECE;}
	.st93{fill:none;stroke:#FFFFFF;stroke-miterlimit:10;}
	.st94{fill:#FFFFFF;stroke:#DBDBDB;stroke-miterlimit:10;}
	.st95{fill:none;stroke:#39AEF1;stroke-width:0.85;stroke-miterlimit:10;}
	.st96{fill:none;stroke:#ADADAD;stroke-width:0.5;}
	.st97{fill:none;stroke:#ADADAD;}
	.st98{fill:none;stroke:#39AEF1;stroke-width:1.4;stroke-miterlimit:10;}
	.st99{fill:none;stroke:#ADADAD;stroke-width:1.4;stroke-miterlimit:10;}
	.st100{fill:none;stroke:#B7B7B7;stroke-width:0.8;stroke-miterlimit:10;}
	.st101{fill:none;stroke:#B7B7B7;stroke-width:1.3;stroke-miterlimit:10;}
	.st102{fill:none;stroke:#39AEF1;stroke-width:2;stroke-miterlimit:10;}
	.st103{fill:none;stroke:#39AEF1;stroke-width:0.75;stroke-miterlimit:10;}
	.st104{fill:none;stroke:#39AEF1;stroke-width:1.2;stroke-miterlimit:10;}
	.st105{font-family:'MyriadPro-Regular';}
	.st106{font-size:18.4992px;}
	.st107{fill:none;stroke:#ADADAD;stroke-width:0.75;stroke-miterlimit:10;}
	.st108{fill:none;stroke:#5ABFE2;stroke-width:0.8;stroke-miterlimit:10;}
	.st109{fill:none;stroke:#39AEF1;stroke-width:1.6;stroke-miterlimit:10;}
	.st110{fill:none;stroke:#49B8EA;stroke-width:1.2;stroke-miterlimit:10;}
	.st111{fill:#49B8EA;}
	.st112{fill:#99F8D5;stroke:#42C992;stroke-width:0.6;stroke-miterlimit:10;}
	.st113{fill:#4D4D4D;}
	.st114{fill:#FBB600;}
	.st115{fill:#49C893;}
	.st116{fill:#EA3EA6;}
	.st117{fill:#FEF0AD;}
	.st118{fill:#FBDF61;}
	.st119{fill:none;stroke:#EFC356;stroke-miterlimit:10;}
	.st120{fill:none;stroke:#FCC954;stroke-miterlimit:10;}
	.st121{fill:none;stroke:#FAA400;stroke-miterlimit:10;}
	.st122{fill:none;stroke:#F2A355;stroke-miterlimit:10;}
	.st123{fill:#DEC3FF;}
	.st124{fill:none;stroke:#9B5FE8;stroke-width:0.7;stroke-miterlimit:10;}
	.st125{fill:#AFE7FF;stroke:#53C1F8;stroke-miterlimit:10;}
	.st126{fill:none;stroke:#53C1F8;stroke-width:1.7;stroke-miterlimit:10;}
	.st127{fill:none;stroke:#EA3EA6;stroke-width:3;stroke-miterlimit:10;}
	.st128{fill:none;stroke:#FFFFFF;stroke-width:2.2;stroke-miterlimit:10;}
	.st129{fill:none;stroke:#EA3EA6;stroke-width:1.2;stroke-miterlimit:10;}
	.st130{fill:#99F8D5;stroke:#49C893;stroke-width:0.8;stroke-miterlimit:10;}
	.st131{fill:#FCE055;stroke:#FBB600;stroke-width:0.8;stroke-miterlimit:10;}
	.st132{fill:#FAB0DF;stroke:#E844A5;stroke-width:0.8;stroke-miterlimit:10;}
	.st133{fill:#AFE7FF;stroke:#59C2F6;stroke-width:0.8;stroke-miterlimit:10;}
	.st134{fill:none;stroke:#449CD3;stroke-width:1.4;stroke-miterlimit:10;}
	.st135{fill:none;stroke:#94801B;stroke-width:1.4;stroke-miterlimit:10;}
	.st136{fill:none;stroke:#CD5744;stroke-width:1.4;stroke-miterlimit:10;}
	.st137{fill:none;stroke:#817F7F;stroke-width:1.4;stroke-miterlimit:10;}
	.st138{fill:none;stroke:#39AEF1;stroke-width:0.9;stroke-miterlimit:10;}
	.st139{fill:none;stroke:#449CD3;stroke-width:1.86;stroke-linecap:round;stroke-linejoin:round;stroke-miterlimit:10;}
	.st140{fill:#94801B;}
	.st141{fill:none;stroke:#CD5744;stroke-width:1.8;stroke-linecap:round;stroke-linejoin:round;stroke-miterlimit:10;}
	.st142{fill:#817F7F;}
	.st143{fill:none;stroke:#363636;stroke-miterlimit:10;}
	.st144{fill:none;stroke:#363636;stroke-linecap:round;stroke-miterlimit:10;}
	.st145{fill:#363636;}
	.st146{fill:none;stroke:#363636;stroke-width:0.8;stroke-miterlimit:10;}
	.st147{fill:#9B9B9B;}
	.st148{fill:none;stroke:#20AFEF;stroke-width:1.2;stroke-miterlimit:10;}
	.st149{fill:none;stroke:#9B9B9B;stroke-miterlimit:10;}
	.st150{fill:#F9F9F9;stroke:#CCCCCC;stroke-miterlimit:10;}
	.st151{fill:none;stroke:#20AFEF;stroke-width:1.6;stroke-miterlimit:10;}
	.st152{fill:none;stroke:#ADADAD;stroke-width:1.6;stroke-miterlimit:10;}
	.st153{fill:#20AFEF;}
	.st154{fill:none;stroke:#FFFFFF;stroke-width:1.6;stroke-linecap:square;stroke-miterlimit:10;}
	.st155{fill:none;stroke:#ADADAD;stroke-width:0.9;stroke-miterlimit:10;}
	.st156{fill:none;stroke:#FFFFFF;stroke-width:1.4;stroke-linecap:round;stroke-miterlimit:10;}
	.st157{fill:#909090;stroke:#909090;stroke-width:0.2;stroke-miterlimit:10;}
	.st158{fill:none;stroke:#909090;stroke-width:1.2;stroke-miterlimit:10;}
	.st159{fill:none;stroke:#909090;stroke-width:0.9;stroke-linecap:round;stroke-linejoin:round;stroke-miterlimit:10;}
	.st160{fill:none;stroke:#909090;stroke-width:0.7;stroke-miterlimit:10;}
	.st161{fill:#909090;}
	.st162{fill:none;stroke:#449CD3;stroke-width:0.86;stroke-miterlimit:10;}
	.st163{fill:#449CD3;}
	.st164{fill:none;stroke:#ADADAD;stroke-width:0.9;stroke-linecap:round;stroke-linejoin:round;stroke-miterlimit:10;}
	.st165{fill:none;stroke:#ADADAD;stroke-width:0.9;stroke-linejoin:round;stroke-miterlimit:10;}
	.st166{fill:none;stroke:#ADADAD;stroke-width:0.7;stroke-miterlimit:10;}
	.st167{fill:none;stroke:#39AEF1;stroke-width:1.5;stroke-linecap:round;stroke-linejoin:round;stroke-miterlimit:10;}
</style>
<g id="Layer_2">
	<text id="XMLID_217_" transform="matrix(1 0 0 1 47.3562 531.5945)" class="st0 st1 st2">!</text>
	<path id="XMLID_181_" class="st3" d="M96.8,375.3H86.1c-0.2,0-0.3-0.1-0.3-0.3v-8.6c0-0.2,0.1-0.3,0.3-0.3h10.7
		c0.2,0,0.3,0.1,0.3,0.3v8.6C97.1,375.2,96.9,375.3,96.8,375.3z"/>
	<g id="Layer_19_11_">
		<path id="XMLID_61_" class="st4" d="M5.5,8.3c0-0.5,8.4,5.4,8.4,5.4c0.1,0.1,0.2,0.1,0.3,0l8.4-5.4v12c0,0.4-0.3,0.6-0.6,0.6H6.4
			c-0.4,0-0.8-0.3-0.8-0.8C5.5,20.2,5.5,11.2,5.5,8.3z"/>
		<path id="XMLID_60_" class="st4" d="M5.5,8.3v-1c0-0.4,0.3-0.6,0.6-0.6l7.8-3.3l7.6,3.2c0.5,0.2,0.8,0.3,0.9,0.8v1"/>
	</g>
	<g id="Layer_19_10_">
		<path id="XMLID_59_" class="st5" d="M27.1,7.8c0-0.5,8.8,5.7,8.8,5.7c0.1,0.1,0.2,0.1,0.3,0L45,7.8v12.6c0,0.4-0.3,0.6-0.6,0.6
			L28,21c-0.4,0-0.6-0.3-0.7-0.7C27.1,20.4,27.1,10.8,27.1,7.8z"/>
		<path id="XMLID_58_" class="st5" d="M27.1,7.8V6.7c0-0.4,0.3-0.6,0.6-0.6L44.1,6c0.4,0,0.7,0.3,0.9,0.7v1"/>
	</g>
	<g id="Layer_19_9_">
		<path id="XMLID_57_" class="st6" d="M52.5,14.2V7.7l8.8,5.5c0.1,0.1,0.2,0.1,0.3,0c0,0,8.8-6.1,8.8-5.5c0,3,0,12.2-0.1,12.2
			c0,0.4-0.3,0.8-0.8,0.8h-8.1"/>
		<path id="XMLID_56_" class="st6" d="M52.5,7.7v-1c0.1-0.4,0.4-0.8,0.9-0.8L69.8,6c0.3,0,0.7,0.2,0.7,0.7v1"/>
	</g>
	<path id="XMLID_55_" class="st6" d="M54.7,19.4c0,0,0,3.1,0,3.8c0,0.2-4.5-4.8-4.5-4.8"/>
	<path id="XMLID_54_" class="st6" d="M50.2,19.1c0,0,4.3-5.2,4.3-4.9s0,3.3,0,3.3"/>
	<path id="XMLID_53_" class="st6" d="M54,17c0,0,5.6,0.6,6.6,6.3c0,0.1-0.1,0.2-0.2,0.1c-0.9-1.2-2.1-4-6.2-3.4"/>
	<g id="Layer_19_8_">
		<path id="XMLID_52_" class="st7" d="M85,20.9h-8.3c-0.5,0-0.8-0.3-0.8-0.8c-0.1,0-0.1-9.5-0.1-12.5c0-0.2,9,5.6,9,5.6
			c0.1,0.1,0.2,0.1,0.3,0l9-5.6v6.6"/>
		<path id="XMLID_51_" class="st7" d="M75.8,7.6v-1c0-0.5,0.3-0.7,0.7-0.7l16.8-0.1c0.5,0,0.8,0.3,0.9,0.8v1"/>
	</g>
	<path id="XMLID_50_" class="st7" d="M91.8,19.5c0,0,0,3.1,0,3.9c0,0.2,4.6-4.9,4.6-4.9"/>
	<path id="XMLID_49_" class="st7" d="M96.4,19.2c0,0-4.4-5.3-4.4-5s0,3.4,0,3.4"/>
	<path id="XMLID_48_" class="st7" d="M92.5,17c0,0-5.7,0.6-6.8,6.5c0,0.1,0.1,0.2,0.2,0.1c0.9-1.3,2.1-4.1,6.3-3.4"/>
	<g id="Layer_11_3_">
		<path id="XMLID_47_" class="st4" d="M60.7,37.7v10c0,0,0,1.5,1.5,2.7c0,0,1.7,1.2,3.9,0.2c0.2-0.2,0.6-0.3,0.9-0.9
			c0.2-0.2,0.6-0.8,0.6-1.2c0.2-2,0-7.4,0-7.4l0.2-5.6c0,0,0-1.1-0.3-1.4c0,0-0.3-0.8-1.1-1.1c-0.3-0.2-0.9-0.5-1.2-0.5
			s-0.9,0-1.7,0.8c-0.1,0.2-0.5,0.6-0.5,1.1c0,0-0.2,7.7-0.2,10.3c0,0.5,0.2,1.7,1.5,1.5c0,0,1.4,0.2,1.7-1.7l0.2-6.8"/>
	</g>
	<g id="Layer_19_7_">
		<path id="XMLID_46_" class="st8" d="M14.5,49H6.1c-0.5,0-0.8-0.3-0.8-0.8c-0.1,0-0.1-9.5-0.1-12.6c0-0.2,9,5.7,9,5.7
			c0.1,0.1,0.2,0.1,0.3,0l9.1-5.7v6.7"/>
		<path id="XMLID_45_" class="st8" d="M5.2,35.6v-1c0-0.2,0.2-0.4,0.7-0.7l8.3-4.5l8.6,4.4c0.7,0.3,0.8,0.3,0.9,0.8v1"/>
	</g>
	<path id="XMLID_44_" class="st8" d="M21.4,47.6c0,0,0,3.1,0,3.9c0,0.2,4.6-4.9,4.6-4.9"/>
	<path id="XMLID_43_" class="st8" d="M26,47.3c0,0-4.4-5.3-4.5-5c0,0.3,0,3.4,0,3.4"/>
	<path id="XMLID_42_" class="st8" d="M22,45.1c0,0-5.8,0.6-6.8,6.5c0,0.1,0.1,0.2,0.2,0.1c0.9-1.3,2.1-4.1,6.4-3.5"/>
	<g id="Layer_19_6_">
		<path id="XMLID_41_" class="st8" d="M31.7,43.1v-7l9.5,5.9c0.1,0.1,0.2,0.1,0.4,0c0,0,9.5-6.2,9.5-5.9c0,3.2,0,13.2-0.1,13.2
			c0,0.5-0.4,0.8-0.8,0.8h-8.7"/>
		<path id="XMLID_40_" class="st8" d="M31.7,36.1V35c0.1-0.5,0.3-0.5,1-0.8l8.9-4.6l8.7,4.7C50.8,34.6,51,35,51,35v1.1"/>
	</g>
	<path id="XMLID_38_" class="st8" d="M34.1,48.7c0,0,0,3.3,0,4.1c0,0.2-4.8-5.1-4.8-5.1"/>
	<path id="XMLID_37_" class="st8" d="M29.3,48.4c0,0,4.6-5.6,4.7-5.3c0,0.3,0,3.6,0,3.6"/>
	<path id="XMLID_36_" class="st8" d="M33.4,46.1c0,0,6,0.6,7.1,6.8c0,0.1-0.1,0.2-0.2,0.1c-0.9-1.3-2.2-4.3-6.7-3.6"/>
	<ellipse id="XMLID_34_" class="st9" cx="28.3" cy="81.8" rx="25" ry="24.8"/>
	<path id="XMLID_33_" class="st8" d="M30.6,94.2c0,0-17.5,0.2-17.5,0l1-2.4c0.3-0.6,0.7-1.1,1.2-1.5c0.9-0.6,2.2-1.6,2.7-1.6
		c1,0,3.3-0.6,3.3-0.6l0.8-0.3c0.3-0.1,0.5-0.3,0.6-0.5c0.3-0.5,0.6-1,0.8-1.8c0,0,0.5-0.9,0.3-1.5c0,0-0.8-2-1.4-2.3l-1-0.2
		l-0.8-1.4v-1.8l-0.9-1.6l-0.2-1.6V74l0.3-2c0,0,0.1-1.2,0.3-1.6c0.2-0.3,0.1-1,0.4-1.6c0.3-0.7,0.8-1.2,1-1.6
		c0.3-0.4,0.6-1.3,1-1.6c0.3-0.3,0.8-0.5,1-0.7s0.7-0.8,1-0.8s0.1-0.3,1.6-0.3c0.8,0,1.1-0.1,1.1-0.1l1-0.1l1-0.1l1.4,0.2"/>
	<path id="XMLID_28_" class="st8" d="M25.9,94.2c0,0,17.5,0.2,17.5,0l-1-2.4c-0.3-0.6-0.7-1.1-1.2-1.5c-0.9-0.6-2.2-1.6-2.7-1.6
		c-1,0-3.3-0.6-3.3-0.6l-0.8-0.3c-0.3-0.1-0.5-0.3-0.6-0.5c-0.3-0.4-0.7-0.9-0.8-1.7c0,0-0.5-0.9-0.3-1.5c0,0,0.8-2,1.4-2.3l1-0.6
		l0.8-1.4V78l0.9-1.6l0.2-1.6v-1.1l-0.3-1.9c0,0-0.1-1.2-0.3-1.6c-0.2-0.3-0.1-1-0.4-1.6c-0.3-0.7-0.8-1.2-1-1.6
		c-0.3-0.4-0.6-1.3-1-1.6c-0.3-0.3-0.8-0.5-1-0.7s-0.7-0.8-1-0.8s-0.1-0.3-1.6-0.3c-0.8,0-1.1-0.1-1.1-0.1l-1-0.1l-1-0.1l-1.6,0.6"
		/>
	<path id="XMLID_143_" class="st8" d="M115.7,107.9c0,0-14.7,0.1-14.7,0l0.8-2c0.2-0.5,0.6-1,1-1.2c0.7-0.5,1.8-1.3,2.3-1.3
		c0.8,0,2.8-0.5,2.8-0.5l0.7-0.2c0.2-0.1,0.4-0.2,0.5-0.4c0.2-0.4,0.5-0.8,0.7-1.5c0,0,0.4-0.7,0.2-1.2c0,0-0.7-1.7-1.2-1.9
		l-0.8-0.4l-0.7-1.2v-1.5l-0.7-1.3l-0.1-1.4v-1l0.2-1.7c0,0,0.1-1,0.2-1.4c0.1-0.3,0.1-0.9,0.4-1.4c0.3-0.6,0.7-1,0.9-1.3
		c0.3-0.4,0.5-1.1,0.9-1.3c0.3-0.2,0.7-0.4,0.8-0.6c0.1-0.1,0.6-0.7,0.9-0.7s0.1-0.2,1.4-0.2c0.7,0,1-0.1,1-0.1l0.8-0.1l0.8-0.1
		l1.3,0.2"/>
	<path id="XMLID_139_" class="st8" d="M111.7,107.9c0,0,14.7,0.1,14.7,0l-0.8-2c-0.2-0.5-0.6-1-1-1.2c-0.7-0.5-1.8-1.3-2.3-1.3
		c-0.8,0-2.8-0.5-2.8-0.5l-0.6-0.2c-0.2-0.1-0.4-0.2-0.5-0.4c-0.2-0.4-0.6-0.7-0.7-1.5c0,0-0.4-0.7-0.2-1.2c0,0,0.7-1.7,1.2-1.9
		l0.8-0.5l0.7-1.2v-1.5l0.7-1.3l0.1-1.4v-1l-0.2-1.6c0,0-0.1-1-0.2-1.4c-0.1-0.3-0.1-0.9-0.4-1.4c-0.3-0.6-0.7-1-0.9-1.3
		c-0.3-0.4-0.5-1.1-0.9-1.3c-0.3-0.2-0.7-0.4-0.8-0.6c-0.1-0.1-0.6-0.7-0.9-0.7s-0.1-0.2-1.4-0.2c-0.7,0-1-0.1-1-0.1l-0.8-0.1
		l-0.8-0.1l-1.3,0.2"/>
	<g id="Layer_3_2_">
		<polyline id="XMLID_189_" class="st5" points="65.6,83.9 65.6,87.8 59.1,81.9 65.6,76.3 65.6,80.3 		"/>
		<path id="XMLID_63_" class="st5" d="M65.3,79.8c0,0,5.7-1.4,9.5,6.6c0,0.1-0.1,0.1-0.1,0.1c-1-1.1-4.6-4.9-9.3-2.1"/>
	</g>
	<g id="Layer_11_2_">
		<path id="XMLID_68_" class="st10" d="M61.6,60.6v5.9c0,1,0.3,2,1,2.7c0.2,0.2,0.3,0.3,0.5,0.4c0,0,1.4,0.9,3,0.2
			c0.1-0.1,0.8-0.4,1-0.7c0.1-0.1,0.4-0.6,0.4-0.9c0.1-1.4,0.1-5.3,0.1-5.3v-4c0,0,0-0.6-0.2-1c-0.2-0.3-0.5-0.7-1.1-1
			c-0.5-0.2-0.8-0.3-1-0.3s-0.6,0-1.2,0.6c-0.1,0.1-0.4,0.4-0.4,0.8c0,0-0.1,5.5-0.1,7.4c0,0.4,0.1,1.2,1.1,1.1c0,0,1,0.1,1.2-1.2
			l0.1-4.5"/>
	</g>
	<path id="XMLID_95_" class="st11" d="M6.3,114.3v15.1c0,0.2,0.2,0.4,0.4,0.4h19.6c0.2,0,0.4-0.2,0.4-0.4v-10.8
		c0-0.2-0.2-0.4-0.4-0.4h-9.5c-0.5,0-0.9-0.2-1.2-0.6c-1.6-2.2-2.6-3.6-3.1-3.6H6.7C6.5,113.9,6.3,114.1,6.3,114.3z"/>
	<path id="XMLID_98_" class="st12" d="M71.5,144.6v16.7c0,1.2-0.9,2.1-2.2,2.1h-15c-1.2,0-2.2-0.9-2.2-2.1v-20.2
		c0-1.2,0.9-2.1,2.2-2.1h11.5"/>
	<path id="XMLID_97_" class="st13" d="M65.9,138.5v4.7c0,0.8,0.9,1.3,1.7,1.3h4.5L65.9,138.5z"/>
	<path id="XMLID_99_" class="st14" d="M61.2,151.1c0,0,1.6-3.2,0.9-4.4c-0.8-1.1-1.7-0.9-1.6,0c0.2,0.9-1.1,6.6,7.1,9.6
		c0,0,3,0,1.1-2.3c0,0-8.8-1.6-14,3.7c0,0-1.1,1.5,0,2C55.8,160.1,61,154.5,61.2,151.1z"/>
	<path id="XMLID_103_" class="st15" d="M22.4,144.6v16.7c0,1.2-0.9,2.1-2.2,2.1h-15c-1.2,0-2.2-0.9-2.2-2.1v-20.2
		c0-1.2,0.9-2.1,2.2-2.1h11.5"/>
	<path id="XMLID_102_" class="st16" d="M16.6,138.5v4.5c0,0.8,0.6,1.5,1.2,1.5h4.9L16.6,138.5z"/>
	<g id="XMLID_101_" class="st17">
		<path id="XMLID_346_" class="st16" d="M7.2,147.4H5V146h6.2v1.3H8.8v7.5H7.3L7.2,147.4L7.2,147.4z"/>
	</g>
	<rect id="XMLID_100_" x="11.4" y="154" class="st18" width="8.5" height="0.6"/>
	<rect id="XMLID_96_" x="4.9" y="157.9" class="st18" width="15.1" height="0.6"/>
	<path id="XMLID_108_" class="st19" d="M46.6,144.6v16.7c0,1.2-0.9,2.1-2.2,2.1H29.3c-1.2,0-2.2-0.9-2.2-2.1v-20.2
		c0-1.2,0.9-2.1,2.2-2.1h11.5"/>
	<path id="XMLID_107_" class="st20" d="M41,138.5v4.7c0,0.8,0.9,1.3,1.7,1.3h4.4L41,138.5z"/>
	<rect id="XMLID_106_" x="29.8" y="152.6" class="st21" width="14" height="0.6"/>
	<rect id="XMLID_105_" x="29.8" y="147" class="st21" width="14" height="0.6"/>
	<rect id="XMLID_104_" x="29.8" y="158.1" class="st21" width="14" height="0.6"/>
	<path id="XMLID_119_" class="st22" d="M96.5,145.4v16.5c0,1.2-0.9,2.1-2.2,2.1H79.5c-1.2,0-2.2-0.9-2.2-2.1v-20
		c0-1.2,0.9-2.1,2.2-2.1h11.3"/>
	<path id="XMLID_118_" class="st23" d="M91,139.4v4.7c0,0.8,0.9,1.3,1.7,1.3h4.4L91,139.4z"/>
	<rect id="XMLID_117_" x="81.2" y="140.2" class="st23" width="3.5" height="1.2"/>
	<rect id="XMLID_116_" x="85.2" y="142" class="st23" width="3.5" height="1.3"/>
	<rect id="XMLID_114_" x="81.2" y="143.5" class="st23" width="3.5" height="1.2"/>
	<rect id="XMLID_113_" x="85.2" y="145.2" class="st23" width="3.5" height="1.3"/>
	<rect id="XMLID_112_" x="81.2" y="146.7" class="st23" width="3.5" height="1.2"/>
	<rect id="XMLID_111_" x="85.2" y="148.6" class="st23" width="3.5" height="1.3"/>
	<rect id="XMLID_110_" x="84.3" y="140.2" class="st23" width="1" height="13.4"/>
	<path id="XMLID_745_" class="st23" d="M87.4,156.9v-3c0-0.8-1.2-1.4-2-1.4h-1.3c-0.8,0-1.7,0.7-1.7,1.4v3c0,0.3,0.3,0.6,0.6,0.6
		h3.8C87.2,157.4,87.5,157.2,87.4,156.9z M84.8,156.2c-0.7,0-1.3-0.6-1.3-1.3s0.6-1.3,1.3-1.3s1.3,0.6,1.3,1.3
		S85.5,156.2,84.8,156.2z"/>
	<path id="XMLID_122_" class="st24" d="M22.4,177.6v16.5c0,1.2-0.9,2.1-2.2,2.1H5.3c-1.2,0-2.2-0.9-2.2-2.1v-20
		c0-1.2,0.9-2.1,2.2-2.1h11.5"/>
	<path id="XMLID_121_" class="st25" d="M16.8,171.6v4.7c0,0.8,0.9,1.3,1.7,1.3h4.4L16.8,171.6z"/>
	<g id="XMLID_120_">
		<path id="XMLID_343_" class="st25" d="M8.8,178.9c0.8-0.1,1.7-0.3,2.9-0.3c1.5,0,2.6,0.4,3.3,1s1,1.5,1,2.6s-0.3,2.1-0.9,2.7
			c-0.8,0.9-2.1,1.4-3.6,1.4c-0.5,0-0.8,0-1.2-0.1v5.1H8.8V178.9z M10.4,185c0.4,0.1,0.8,0.1,1.2,0.1c1.9,0,2.9-0.9,2.9-2.7
			c0-1.7-1.1-2.4-2.8-2.4c-0.7,0-1.1,0.1-1.4,0.1L10.4,185L10.4,185z"/>
	</g>
	<path id="XMLID_126_" class="st26" d="M47.1,177.8v16.5c0,1.2-0.9,2.1-2.2,2.1H30c-1.2,0-2.2-0.9-2.2-2.1v-20
		c0-1.2,0.9-2.1,2.2-2.1h11.4"/>
	<path id="XMLID_125_" class="st27" d="M41.5,171.8v4.7c0,0.8,0.9,1.3,1.7,1.3h4.4L41.5,171.8z"/>
	<path id="XMLID_124_" class="st26" d="M27.9,188.3l4.7-3.1l4,3.3l10.2-4.8l0.1,11c0,0.8-1.4,1.7-1.8,1.7H29.7c-0.6,0-1.5-0.5-1.7-1
		C27.8,194.3,27.9,193.3,27.9,188.3z"/>
	<circle id="XMLID_123_" class="st28" cx="38.4" cy="182.4" r="1.3"/>
	<path id="XMLID_129_" class="st29" d="M72,177.8v16.5c0,1.2-0.9,2.1-2.2,2.1H55c-1.2,0-2.2-0.9-2.2-2.1v-20c0-1.2,0.9-2.1,2.2-2.1
		h11.4"/>
	<path id="XMLID_128_" class="st30" d="M66.4,171.8v4.7c0,0.8,0.9,1.3,1.7,1.3h4.4L66.4,171.8z"/>
	<path id="XMLID_127_" class="st31" d="M59.2,180.3v9.3c0,0.1,0.1,0.1,0.1,0.1l6.4-4.6V185L59.2,180.3
		C59.3,180.2,59.2,180.3,59.2,180.3z"/>
	<path id="XMLID_133_" class="st32" d="M96,178.4v16.2c0,1.2-1.1,1.6-2.2,1.6H79.2c-1.2,0-2.5-0.6-2.5-1.6v-20
		c0-1.2,1.3-1.6,2.5-1.6h11.2"/>
	<path id="XMLID_132_" class="st33" d="M90.5,172.3l0.1,4.8c0,0.7,1,1.3,1.7,1.3l4.3,0.1L90.5,172.3z"/>
	<ellipse id="XMLID_131_" class="st33" cx="84.4" cy="190.3" rx="2.7" ry="1.9"/>
	<path id="XMLID_130_" class="st34" d="M86.2,190.2c0,0,0.4-6.5,0.5-7.9c0-0.1,0.1-0.1,0.2,0c0.3,0.4,2,1.7,2.6,2"/>
	<path id="XMLID_136_" class="st35" d="M22.4,209.3v16.6c0,1.2-0.9,2.1-2.2,2.1H5.4c-1.2,0-2.2-0.9-2.2-2.1v-20
		c0-1.2,0.9-2.1,2.2-2.1h11.4"/>
	<path id="XMLID_135_" class="st36" d="M16.9,203.3v4.7c0,0.8,0.9,1.3,1.7,1.3H23L16.9,203.3z"/>
	<g id="XMLID_134_">
		<path id="XMLID_198_" class="st36" d="M7.4,217c0.2,0.2,0.5,0.4,0.8,0.7c0.4,0.4,0.6,0.7,0.7,0.8c0,0,0.1,0.2,0.1,0.3
			s0,0.3-0.1,0.4c-0.1,0.1-0.2,0.2-0.3,0.2s-0.2,0-0.3-0.1s-0.5-0.4-0.8-0.9c-0.4-0.4-0.7-0.7-0.9-0.8c-0.3-0.1-0.4-0.3-0.4-0.5
			s0.1-0.4,0.4-0.5c0.3-0.2,0.7-0.5,1-0.8c0.6-0.6,0.8-0.9,0.9-1s0.2-0.1,0.3-0.1s0.2,0.1,0.3,0.2c0.1,0.1,0.1,0.2,0.1,0.4
			c0,0.1-0.1,0.3-0.2,0.4C8.6,215.8,8,216.4,7.4,217z"/>
		<path id="XMLID_200_" class="st36" d="M10.8,221c-0.1,0-0.3,0-0.4-0.1c-0.1-0.1-0.2-0.2-0.2-0.4c0-0.1,0-0.1,0-0.2
			c0.3-0.8,0.8-1.9,1.5-3.4c0.8-1.5,1.2-2.6,1.5-3.4c0.5-1.3,0.8-2,1-2c0.1,0,0.3,0.1,0.4,0.2c0.1,0.1,0.2,0.2,0.2,0.4
			c0,0.1,0,0.2-0.1,0.3l-0.6,1.5c-0.2,0.7-0.6,1.5-0.9,2.3l-1.1,2.3l-0.9,2.2C11,220.9,11,221,10.8,221z"/>
		<path id="XMLID_340_" class="st36" d="M18.9,216.8c0,0.1-0.1,0.3-0.2,0.4c-0.8,0.8-1.7,1.5-2.5,2.2c-0.1,0.1-0.2,0.1-0.3,0.1
			s-0.2-0.1-0.3-0.2c-0.1-0.1-0.1-0.2-0.1-0.4s0.1-0.3,0.2-0.4l2-1.6c-0.3-0.2-0.7-0.6-1.1-1c-0.6-0.6-0.8-0.9-0.8-1.1
			c0-0.1,0-0.3,0.2-0.4c0.2-0.1,0.2-0.2,0.3-0.2s0.3,0.1,0.4,0.2c0.8,0.9,1.5,1.6,2.1,2C18.8,216.5,18.9,216.6,18.9,216.8z"/>
	</g>
	<path id="XMLID_146_" class="st37" d="M47,209.3v16.6c0,1.2-0.9,2.1-2.2,2.1H29.9c-1.2,0-2.2-0.9-2.2-2.1v-20
		c0-1.2,0.9-2.1,2.2-2.1h11.4"/>
	<path id="XMLID_142_" class="st38" d="M41.4,203.3v4.7c0,0.8,0.9,1.3,1.7,1.3h4.4L41.4,203.3z"/>
	<rect id="XMLID_141_" x="31.4" y="211.8" class="st37" width="11.6" height="7.4"/>
	
		<rect id="XMLID_140_" x="32.7" y="221.1" transform="matrix(0.651 -0.7591 0.7591 0.651 -155.7272 104.198)" class="st38" width="5.5" height="0.7"/>
	
		<rect id="XMLID_138_" x="39.1" y="218.8" transform="matrix(0.7591 -0.651 0.651 0.7591 -134.7252 79.0573)" class="st38" width="0.7" height="5.5"/>
	<rect id="XMLID_137_" x="37" y="218.6" class="st38" width="0.7" height="5.5"/>
	<path id="XMLID_153_" class="st39" d="M72.1,209.6v16.6c0,1.2-0.9,2.1-2.2,2.1H55c-1.2,0-2.2-0.9-2.2-2.1v-20.1
		c0-1.2,0.9-2.1,2.2-2.1h11.4"/>
	<path id="XMLID_152_" class="st40" d="M66.4,203.5v4.7c0,0.8,0.9,1.3,1.7,1.3h4.4L66.4,203.5z"/>
	<path id="XMLID_151_" class="st41" d="M68.9,223.9H56c-0.2,0-0.3-0.1-0.3-0.3v-9.9c0-0.2,0.1-0.3,0.3-0.3h12.9
		c0.2,0,0.3,0.1,0.3,0.3v9.9C69.2,223.8,69,223.9,68.9,223.9z"/>
	<line id="XMLID_150_" class="st41" x1="55.9" y1="215.9" x2="69.1" y2="215.9"/>
	<line id="XMLID_149_" class="st41" x1="55.9" y1="218.7" x2="69.1" y2="218.7"/>
	<line id="XMLID_148_" class="st41" x1="55.9" y1="221.3" x2="69.1" y2="221.3"/>
	<line id="XMLID_147_" class="st41" x1="59.6" y1="213.6" x2="59.6" y2="223.9"/>
	<path id="XMLID_156_" class="st42" d="M95.9,209.8v16.6c0,1.2-0.9,2.1-2.2,2.1H78.8c-1.2,0-2.2-0.9-2.2-2.1v-20.1
		c0-1.2,0.9-2.1,2.2-2.1h11.4"/>
	<path id="XMLID_155_" class="st43" d="M90.2,203.7v4.7c0,0.8,0.9,1.3,1.7,1.3h4.4L90.2,203.7z"/>
	<g id="XMLID_154_">
		<path id="XMLID_195_" class="st43" d="M84.7,220.5c0-0.3,0-0.5,0-0.7c0-0.5,0-0.9,0.1-1.3s0.2-0.7,0.3-0.9
			c0.1-0.3,0.3-0.5,0.4-0.7c0.2-0.2,0.3-0.4,0.4-0.7c0.1-0.2,0.2-0.5,0.3-0.8c0.1-0.3,0.1-0.7,0.1-1s0-0.6-0.1-0.9s-0.2-0.5-0.3-0.6
			c-0.1-0.2-0.3-0.3-0.5-0.4s-0.4-0.1-0.6-0.1c-0.4,0-0.7,0.1-0.9,0.2c-0.2,0.1-0.3,0.4-0.3,0.6c0,0.1,0,0.3,0.1,0.4
			c0.1,0.1,0.1,0.2,0.2,0.3s0.1,0.2,0.2,0.3s0.1,0.2,0.1,0.4s0,0.3-0.1,0.4s-0.1,0.2-0.3,0.3c-0.1,0.1-0.2,0.2-0.4,0.2
			c-0.1,0-0.3,0.1-0.5,0.1s-0.4,0-0.6-0.1s-0.3-0.2-0.5-0.3s-0.2-0.3-0.3-0.5s-0.1-0.4-0.1-0.6c0-0.5,0.1-0.9,0.3-1.2
			c0.2-0.4,0.5-0.7,0.9-0.9s0.8-0.4,1.1-0.5s0.9-0.2,1.2-0.2c0.6,0,1,0.1,1.5,0.2s0.9,0.3,1.1,0.6c0.3,0.3,0.6,0.6,0.8,0.9
			c0.2,0.4,0.3,0.8,0.3,1.2s-0.1,0.8-0.3,1c-0.2,0.3-0.4,0.6-0.6,0.9c-0.3,0.3-0.5,0.5-0.8,0.8s-0.6,0.5-0.8,0.8
			c-0.3,0.3-0.5,0.7-0.6,0.9c-0.1,0.3-0.3,0.9-0.3,1.3c0,0.1,0,0.1,0,0.2c0,0.1,0,0.1,0,0.2L84.7,220.5L84.7,220.5L84.7,220.5z
			 M84.1,222.3c0-0.2,0-0.3,0.1-0.5s0.2-0.3,0.3-0.4c0.1-0.1,0.3-0.2,0.4-0.3s0.2-0.1,0.4-0.1s0.4,0,0.5,0.1
			c0.2,0.1,0.3,0.2,0.4,0.3s0.2,0.3,0.3,0.4c0.1,0.2,0.1,0.3,0.1,0.5s0,0.3-0.1,0.5s-0.2,0.3-0.3,0.4c-0.1,0.1-0.3,0.2-0.4,0.3
			s-0.3,0.1-0.5,0.1s-0.4,0-0.5-0.1s-0.3-0.2-0.4-0.3s-0.2-0.3-0.3-0.4C84.1,222.6,84.1,222.4,84.1,222.3z"/>
	</g>
	<circle id="XMLID_188_" class="st44" cx="67" cy="107.9" r="12.6"/>
	<rect id="XMLID_187_" x="59.3" y="103.4" class="st45" width="3" height="1.2"/>
	<rect id="XMLID_255_" x="64.5" y="103.4" class="st45" width="10.1" height="1.2"/>
	<rect id="XMLID_257_" x="59.3" y="107.6" class="st45" width="15.3" height="1.2"/>
	<rect id="XMLID_258_" x="59.3" y="111.9" class="st45" width="15.3" height="1.2"/>
	<polyline id="XMLID_259_" class="st46" points="33.6,124.6 33.6,128.7 49.3,128.7 49.3,124.6 	"/>
	<path id="XMLID_264_" class="st46" d="M45,120.9"/>
	<polyline id="XMLID_265_" class="st46" points="36.6,120.1 41.8,124.5 46.6,120.1 	"/>
	<line id="XMLID_263_" class="st46" x1="41.7" y1="124.4" x2="41.7" y2="114.7"/>
	<path id="XMLID_244_" class="st47" d="M96,242.3v13H78.7v-13H96 M95.9,240.9H78.6c-0.9,0-1.3,0.9-1.3,1.7v13c0,0.9,0.4,1.2,1.3,1.2
		h17.3c0.9,0,1.6-0.3,1.6-1.2v-13C97.5,241.8,96.8,240.9,95.9,240.9L95.9,240.9z"/>
	<polyline id="XMLID_243_" class="st48" points="83,241.6 94.6,238.7 95.5,241.9 	"/>
	<polyline id="XMLID_242_" class="st48" points="81.5,241.6 90.7,236 92.4,239 	"/>
	<path id="XMLID_241_" class="st48" d="M93.9,251.9h2.7v-5.8h-2.7c-1.6,0-2.9,1.3-2.9,2.9l0,0C91,250.6,92.3,251.9,93.9,251.9z"/>
	<path id="XMLID_240_" class="st47" d="M93.9,248.3c-0.4,0-0.7,0.3-0.7,0.7s0.3,0.7,0.7,0.7s0.7-0.3,0.7-0.7
		C94.6,248.5,94.3,248.3,93.9,248.3L93.9,248.3z"/>
	<ellipse id="XMLID_239_" class="st49" cx="7.8" cy="246.6" rx="5.4" ry="10.1"/>
	<ellipse id="XMLID_238_" class="st49" cx="8.5" cy="246.6" rx="2" ry="4.7"/>
	<polyline id="XMLID_237_" class="st50" points="8.5,246.6 20.4,246.6 21.9,246.6 	"/>
	<polygon id="XMLID_236_" class="st51" points="20.5,246.6 21.9,243.9 24.6,243.9 23.2,246.6 	"/>
	<polygon id="XMLID_235_" class="st51" points="20.5,246.6 21.9,249.2 24.6,249.2 23.2,246.6 	"/>
	<path id="XMLID_234_" class="st52" d="M41.2,236.1v5.3h5.3v-3.8c0-0.8-0.5-1.5-1.3-1.5H41.2z"/>
	<path id="XMLID_233_" class="st52" d="M45.2,257.2H28v-21.1h17.1c0.8,0,1.3,0.7,1.3,1.5v18.5C46.5,256.8,46,257.2,45.2,257.2z"/>
	<path id="XMLID_232_" class="st52" d="M41.2,241.4v5.3h5.3v-5.3H41.2z"/>
	<path id="XMLID_231_" class="st52" d="M41.2,246.6v5.3h5.3v-5.3H41.2z"/>
	<path id="XMLID_230_" class="st52" d="M41.2,251.9v5.3h4c0.8,0,1.3-0.4,1.3-1.2v-4.1L41.2,251.9L41.2,251.9z"/>
	<ellipse id="XMLID_229_" class="st52" cx="34.4" cy="244.1" rx="2.2" ry="2.2"/>
	<path id="XMLID_228_" class="st52" d="M38.5,250.6h-8.2c0-2.6,1.8-3.8,4.1-3.8S38.5,248,38.5,250.6z"/>
	<rect id="XMLID_227_" x="43.2" y="253.9" class="st53" width="1.3" height="1.3"/>
	<rect id="XMLID_226_" x="43.2" y="248.6" class="st53" width="1.3" height="1.3"/>
	<rect id="XMLID_225_" x="43.2" y="243.3" class="st53" width="1.3" height="1.3"/>
	<rect id="XMLID_224_" x="43.2" y="238.1" class="st53" width="1.3" height="1.3"/>
	<polygon id="XMLID_223_" class="st54" points="57.4,255.2 58.8,255.2 58.8,249.8 57.4,249.8 	"/>
	<polygon id="XMLID_222_" class="st54" points="54.7,255.2 56.1,255.2 56.1,249.8 54.7,249.8 	"/>
	<path id="XMLID_219_" class="st54" d="M71,237.6v19h-9.5v-19H71 M72.4,236.2H60.2v21.7h12.2V236.2L72.4,236.2z"/>
	<path id="XMLID_216_" class="st54" d="M60.2,243v13.6h-6.8V243H60.2 M61.5,241.7H52V258h9.5V241.7L61.5,241.7z"/>
	<path id="XMLID_215_" class="st54" d="M68.3,251.2h-4.1v6.8h4.1V251.2L68.3,251.2z"/>
	<line id="XMLID_214_" class="st55" x1="54.7" y1="245.1" x2="56.1" y2="245.1"/>
	<line id="XMLID_213_" class="st55" x1="54.7" y1="247.8" x2="56.1" y2="247.8"/>
	<line id="XMLID_212_" class="st55" x1="57.4" y1="245.1" x2="58.8" y2="245.1"/>
	<line id="XMLID_211_" class="st55" x1="57.4" y1="247.8" x2="58.8" y2="247.8"/>
	<line id="XMLID_210_" class="st55" x1="64.2" y1="245.1" x2="65.6" y2="245.1"/>
	<line id="XMLID_209_" class="st55" x1="64.2" y1="247.8" x2="65.6" y2="247.8"/>
	<line id="XMLID_208_" class="st55" x1="67" y1="245.1" x2="68.3" y2="245.1"/>
	<line id="XMLID_207_" class="st55" x1="67" y1="247.8" x2="68.3" y2="247.8"/>
	<line id="XMLID_206_" class="st55" x1="64.2" y1="239.6" x2="65.6" y2="239.6"/>
	<line id="XMLID_205_" class="st55" x1="64.2" y1="242.3" x2="65.6" y2="242.3"/>
	<line id="XMLID_204_" class="st55" x1="67" y1="239.6" x2="68.3" y2="239.6"/>
	<line id="XMLID_203_" class="st55" x1="67" y1="242.3" x2="68.3" y2="242.3"/>
	<rect id="XMLID_281_" x="6.9" y="273.5" class="st56" width="11.6" height="1.4"/>
	<rect id="XMLID_280_" x="6.9" y="267.7" class="st56" width="7.2" height="1.4"/>
	<rect id="XMLID_279_" x="6.9" y="270.6" class="st56" width="7.2" height="1.4"/>
	<rect id="XMLID_278_" x="12.7" y="280.7" class="st56" width="5.8" height="1.4"/>
	<rect id="XMLID_277_" x="12.7" y="277.8" class="st56" width="5.8" height="1.4"/>
	<path id="XMLID_276_" class="st56" d="M13,283.7c-0.9-0.6-1.9-0.9-2.9-1.2c-0.3,1-0.7,1.9-1,2.8c-0.1-0.4-0.3-0.9-0.3-1.2
		c0-0.3-0.2-0.2-0.3-0.2s-0.3,0-0.3,0.3c0,0.4-0.1,0.9-0.3,1.2l0,0c-0.3-0.9-0.7-1.9-1-2.9c-0.7,0.3-1.6,0.6-2.3,0.9
		c-1.3,0.6-1.4,1.4-1.3,2.9c3.5,0,7.1,0,10.6,0c0,0,0-0.9,0-1.2C13.7,284.7,13.4,284.2,13,283.7z"/>
	<path id="XMLID_275_" class="st56" d="M6.2,278.1c0,0.3,0,0.4-0.3,0.7c-0.4,0.3-0.3,1,0.1,1.3c0.1,0.1,0.3,0.3,0.4,0.4
		c0.3,0.4,0.4,0.9,0.9,1.2c0.4,0.3,0.9,0.6,1.4,0.6c1-0.1,1.3-1,1.9-1.7c0.1-0.1,0.3-0.3,0.4-0.4c0.4-0.4,0.6-1.2,0.1-1.3
		c-0.3-0.1-0.3-0.4-0.3-0.7c0-1-0.7-1.7-1.6-2c-0.3,0-0.7-0.1-0.7-0.1s-0.4,0-0.6,0.1C6.8,276.3,6.2,277.1,6.2,278.1z"/>
	<path id="XMLID_274_" class="st57" d="M8.1,283.6c0,0.1,0.1,0.1,0.3,0.1c0.1,0,0.3,0,0.3-0.1c0.1-0.1,0.1-0.4,0.3-0.7
		c-0.4,0-0.7,0-1.2,0C7.9,283.1,8.1,283.3,8.1,283.6z"/>
	<polyline id="XMLID_273_" class="st58" points="4.7,276.3 4.7,264 16.2,264 22.1,269.8 22.1,285.8 15.6,285.8 	"/>
	<polyline id="XMLID_272_" class="st58" points="16.3,264.5 16.3,269.8 21.7,269.8 	"/>
	<polygon id="XMLID_271_" class="st59" points="46.3,286.2 28.4,286.2 28.4,263.8 40.2,263.8 46.3,269.8 	"/>
	<polyline id="XMLID_270_" class="st59" points="40.4,264.2 40.4,269.8 45.8,269.8 	"/>
	<path id="XMLID_269_" class="st60" d="M34.6,272.9c-0.7,0-1.6-0.4-2.1-0.9l-0.6,1c0.4,0.4,1.2,0.9,1.9,1v1h1.5v-1
		c1.2-0.1,1.9-1,1.9-2.1c0-2.7-3.7-1.8-3.7-3c0-0.4,0.4-0.9,1.2-0.9c0.7,0,1.5,0.3,1.8,0.7l0.6-1c-0.4-0.4-1-0.7-1.8-0.9v-0.9h-1.5
		v1c-1,0.3-1.6,1-1.6,1.9c0,2.5,3.7,1.6,3.7,3C35.8,272.5,35.3,272.9,34.6,272.9z"/>
	<rect id="XMLID_268_" x="38.1" y="272" class="st60" width="4.5" height="1.5"/>
	<rect id="XMLID_267_" x="38.1" y="275" class="st60" width="4.5" height="1.5"/>
	<rect id="XMLID_266_" x="32.2" y="278" class="st60" width="10.4" height="1.5"/>
	<rect id="XMLID_262_" x="32.2" y="281" class="st60" width="10.4" height="1.5"/>
	<polyline id="XMLID_261_" class="st61" points="59.2,284.1 54.6,284.1 54.6,264 65.1,264 70.6,269.4 70.6,274 	"/>
	<polyline id="XMLID_260_" class="st61" points="65.3,264.4 65.3,269.4 70.2,269.4 	"/>
	<path id="XMLID_256_" class="st62" d="M66.7,282.9c-0.7,0-1.5-0.4-1.9-0.8l-0.5,0.9c0.4,0.4,1.1,0.8,1.7,0.9v0.9h1.3v-0.9
		c1.1-0.1,1.7-0.9,1.7-1.9c0-2.4-3.4-1.6-3.4-2.7c0-0.4,0.4-0.8,1.1-0.8s1.3,0.3,1.6,0.7l0.5-0.9c-0.4-0.4-0.9-0.7-1.6-0.8v-0.8
		h-1.3v0.9c-0.9,0.3-1.5,0.9-1.5,1.7c0,2.3,3.4,1.5,3.4,2.7C67.8,282.5,67.4,282.9,66.7,282.9z"/>
	<circle id="XMLID_254_" class="st61" cx="66.7" cy="280.6" r="5.6"/>
	<line id="XMLID_253_" class="st61" x1="56.6" y1="269.4" x2="63.3" y2="269.4"/>
	<line id="XMLID_252_" class="st61" x1="56.6" y1="272" x2="68.6" y2="272"/>
	<line id="XMLID_251_" class="st61" x1="56.6" y1="274.7" x2="61.9" y2="274.7"/>
	<polyline id="XMLID_250_" class="st59" points="86.6,285.8 77,285.8 77,263.8 88.6,263.8 94.7,269.6 94.7,274.8 	"/>
	<polyline id="XMLID_249_" class="st59" points="88.8,264.2 88.8,269.6 94.1,269.6 	"/>
	<path id="XMLID_248_" class="st60" d="M83,274.2c-0.7,0-1.6-0.4-2.1-0.9l-0.6,1c0.4,0.4,1.2,0.9,1.9,1v1h1.5v-1
		c1.2-0.1,1.9-1,1.9-2.1c0-2.6-3.7-1.8-3.7-2.9c0-0.4,0.4-0.9,1.2-0.9s1.5,0.3,1.8,0.7l0.6-1c-0.4-0.4-1-0.7-1.8-0.9v-0.9h-1.5v1
		c-1,0.3-1.6,1-1.6,1.9c0,2.5,3.7,1.6,3.7,2.9C84.2,273.8,83.8,274.2,83,274.2z"/>
	<polyline id="XMLID_247_" class="st59" points="88.6,280.5 91.3,283.2 96.9,277.7 	"/>
	<path id="XMLID_307_" class="st63" d="M7.5,294.7l3.7-0.7c0-0.4,0.1-0.8,0.5-1.2c0.3-0.3,0.7-0.5,1.2-0.5s0.8,0.1,1.2,0.5
		c0.3,0.3,0.5,0.7,0.5,1.2l3.7,0.7"/>
	<path id="XMLID_304_" class="st64" d="M19.3,297.1v15.8H6.1v-15.7L19.3,297.1 M20.6,295.8H4.8v18.4h15.7L20.6,295.8L20.6,295.8z"/>
	<line id="XMLID_303_" class="st63" x1="17.9" y1="303" x2="12.7" y2="303"/>
	<line id="XMLID_302_" class="st63" x1="17.9" y1="300.4" x2="14" y2="300.4"/>
	<polyline id="XMLID_301_" class="st63" points="7.5,301.2 8.6,302.5 12.7,298.6 	"/>
	<line id="XMLID_300_" class="st63" x1="17.9" y1="310.9" x2="12.7" y2="310.9"/>
	<line id="XMLID_299_" class="st63" x1="17.9" y1="308.3" x2="14" y2="308.3"/>
	<polyline id="XMLID_298_" class="st63" points="7.5,309.1 8.6,310.4 12.7,306.5 	"/>
	<path id="XMLID_294_" class="st65" d="M31.2,295.8h9.4 M40.6,295.8H48v4H27.9v-4h3.4 M27.9,313.2v-13.4H48v13.4H27.9z"/>
	<polygon id="XMLID_293_" class="st66" points="32.6,293.9 31.2,293.9 31.2,295.2 32.6,295.2 	"/>
	<polygon id="XMLID_292_" class="st66" points="44.7,293.9 43.3,293.9 43.3,295.2 44.7,295.2 	"/>
	<polygon id="XMLID_291_" class="st66" points="36.6,301.8 35.3,301.8 35.3,303.1 36.6,303.1 	"/>
	<polygon id="XMLID_290_" class="st66" points="36.6,304.5 35.3,304.5 35.3,305.8 36.6,305.8 	"/>
	<polygon id="XMLID_289_" class="st66" points="32.6,307.2 31.2,307.2 31.2,308.5 32.6,308.5 	"/>
	<polygon id="XMLID_288_" class="st66" points="32.6,309.9 31.2,309.9 31.2,311.2 32.6,311.2 	"/>
	<polygon id="XMLID_287_" class="st66" points="36.6,307.2 35.3,307.2 35.3,308.5 36.6,308.5 	"/>
	<polygon id="XMLID_286_" class="st66" points="36.6,309.9 35.3,309.9 35.3,311.2 36.6,311.2 	"/>
	<polygon id="XMLID_285_" class="st66" points="40.6,301.8 39.3,301.8 39.3,303.1 40.6,303.1 	"/>
	<polygon id="XMLID_284_" class="st66" points="40.6,304.5 39.3,304.5 39.3,305.8 40.6,305.8 	"/>
	<polygon id="XMLID_283_" class="st66" points="40.6,307.2 39.3,307.2 39.3,308.5 40.6,308.5 	"/>
	<polygon id="XMLID_282_" class="st66" points="40.6,309.9 39.3,309.9 39.3,311.2 40.6,311.2 	"/>
	<polygon id="XMLID_202_" class="st66" points="44.7,301.8 43.3,301.8 43.3,303.1 44.7,303.1 	"/>
	<polygon id="XMLID_62_" class="st66" points="44.7,304.5 43.3,304.5 43.3,305.8 44.7,305.8 	"/>
	<polygon id="XMLID_85_" class="st66" points="44.7,307.2 43.3,307.2 43.3,308.5 44.7,308.5 	"/>
	<polygon id="XMLID_86_" class="st67" points="95.8,314.9 78.1,314.9 78.1,292.9 89.7,292.9 95.8,298.8 	"/>
	<polyline id="XMLID_87_" class="st67" points="89.7,292.9 89.9,298.8 95.8,298.8 	"/>
	<line id="XMLID_88_" class="st67" x1="80.3" y1="298.8" x2="87.7" y2="298.8"/>
	<line id="XMLID_89_" class="st67" x1="80.3" y1="301.7" x2="93.6" y2="301.7"/>
	<line id="XMLID_90_" class="st67" x1="80.3" y1="304.6" x2="93.6" y2="304.6"/>
	<line id="XMLID_91_" class="st67" x1="80.3" y1="307.6" x2="93.6" y2="307.6"/>
	<line id="XMLID_92_" class="st67" x1="80.3" y1="310.5" x2="93.6" y2="310.5"/>
	<polygon id="XMLID_324_" class="st68" points="17.8,322 17.8,334.9 7.5,330.4 3.6,330.4 3.6,326.5 7.4,326.5 	"/>
	<line id="XMLID_323_" class="st68" x1="19.7" y1="329.1" x2="23.6" y2="329.1"/>
	<line id="XMLID_322_" class="st68" x1="20.2" y1="325.2" x2="23.1" y2="322.6"/>
	<line id="XMLID_321_" class="st68" x1="20.2" y1="332.9" x2="23.1" y2="335.5"/>
	<polyline id="XMLID_320_" class="st68" points="16.4,334.1 15.5,336.5 8.8,333.7 9.4,331.7 	"/>
	<polyline id="XMLID_319_" class="st69" points="36.1,340.4 28.7,340.4 28.7,320.3 39.3,320.3 44.8,325.6 44.8,331.7 	"/>
	<polyline id="XMLID_318_" class="st69" points="39.5,320.7 39.5,325.6 44.5,325.6 	"/>
	<path id="XMLID_317_" class="st70" d="M34.2,329.8c-0.7,0-1.5-0.4-1.9-0.8l-0.5,0.9c0.4,0.4,1.1,0.8,1.7,0.9v0.9h1.3v-0.8
		c1.1-0.1,1.7-0.9,1.7-1.9c0-2.4-3.4-1.6-3.4-2.7c0-0.4,0.4-0.8,1.1-0.8s1.3,0.3,1.6,0.7l0.5-0.9c-0.4-0.4-0.9-0.7-1.6-0.8v-0.8
		h-1.3v0.9c-0.9,0.3-1.5,0.9-1.5,1.7c0,2.3,3.4,1.5,3.4,2.7C35.3,329.4,34.9,329.8,34.2,329.8z"/>
	<path id="XMLID_316_" class="st69" d="M38.1,335h10.3c0,0,0.1,0,0,0.1L46,339h-5.6l-3.8-6"/>
	<circle id="XMLID_315_" class="st70" cx="45.2" cy="341.2" r="1.1"/>
	<circle id="XMLID_314_" class="st70" cx="41.2" cy="341.2" r="1.1"/>
	<polyline id="XMLID_313_" class="st71" points="65.3,329.7 65.3,342.4 75.2,338.2 75.2,325.4 65.3,320.5 55.4,325.4 55.4,338.2 
		65,342.7 	"/>
	<polyline id="XMLID_312_" class="st71" points="55.9,325.6 65.1,330.4 74.6,325.6 	"/>
	<polygon id="XMLID_311_" class="st72" points="62.8,322.2 59.4,323.9 68.4,328.5 68.5,335.1 70.1,332.8 71.8,333.5 71.9,326.8 	"/>
	<polygon id="XMLID_310_" class="st73" points="96.3,325.3 97.6,330.2 85.8,342 79.7,335.8 91.3,324.1 	"/>
	<line id="XMLID_309_" class="st73" x1="83.1" y1="334.7" x2="87" y2="338.5"/>
	<circle id="XMLID_308_" class="st74" cx="93.4" cy="328.3" r="1.3"/>
	<rect id="XMLID_333_" x="2.8" y="354.6" class="st75" width="20.7" height="13.8"/>
	<line id="XMLID_332_" class="st75" x1="3.5" y1="358.7" x2="11.8" y2="358.7"/>
	<line id="XMLID_331_" class="st75" x1="14.5" y1="358.7" x2="22.8" y2="358.7"/>
	<line id="XMLID_330_" class="st75" x1="11.8" y1="360.1" x2="14.5" y2="360.1"/>
	<rect id="XMLID_329_" x="8.3" y="351.8" class="st75" width="9.7" height="2.8"/>
	<circle id="XMLID_328_" class="st76" cx="43" cy="350.6" r="1.5"/>
	<circle id="XMLID_327_" class="st76" cx="38.3" cy="352.4" r="1.8"/>
	<path id="XMLID_326_" class="st77" d="M34.1,354.1l1.6,1.6v4.4c0,0.4-0.1,0.9-0.3,1.3l-4.3,8.7c-0.3,0.4,0.1,1,0.6,1h15.4
		c0.6,0,0.9-0.6,0.6-1l-4.4-8.7c-0.1-0.4-0.3-0.9-0.3-1.3v-4.4l1.6-1.6"/>
	<line id="XMLID_325_" class="st77" x1="33.5" y1="365.3" x2="45.2" y2="365.3"/>
	<polyline id="XMLID_93_" class="st78" points="78.4,60.8 84.3,65.9 89.7,60.8 	"/>
	<polyline id="XMLID_341_" class="st79" points="78.4,68.5 84.3,73.6 89.7,68.5 	"/>
	<g id="Layer_2_1_">
		<circle id="XMLID_144_" class="st80" cx="12" cy="385.6" r="3.1"/>
		<path id="XMLID_145_" class="st80" d="M17.3,393.8v-1.4c0-0.5-0.2-0.9-0.4-1.4c-0.5-1.2-2-2-3.5-2h-4c-2,0-3.7,1.7-3.7,3.7v1.2
			c0,0.5,0.4,0.8,0.8,0.8h9.6C17.3,394.9,17.3,394.3,17.3,393.8z"/>
	</g>
	<circle id="XMLID_94_" class="st80" cx="33.3" cy="385.5" r="3.1"/>
	<path id="XMLID_157_" class="st81" d="M42.5,390.3h-1.3c-0.8,0-1.5,0.2-2.1,0.6c0.6,0.6,1.3,2.6,0.1,3.8c0.1,0,0.1,0.1,0.2,0.1h6.2
		c0.2,0,0.4-0.2,0.5-0.4C46.3,392.2,44.6,390.3,42.5,390.3z"/>
	<path id="XMLID_158_" class="st80" d="M38.6,393.7v-1.3c0-0.5-0.2-0.9-0.4-1.3c-0.6-1.3-2-2-3.5-2h-4c-2,0-3.7,1.7-3.7,3.7v1.3
		c0,0.5,0.4,0.8,0.8,0.8h9.6C38.6,394.7,38.6,394.2,38.6,393.7z"/>
	<circle id="XMLID_159_" class="st81" cx="41.9" cy="387.4" r="2.4"/>
	<circle id="XMLID_160_" class="st44" cx="62.5" cy="356.3" r="5.5"/>
	<polyline id="XMLID_161_" class="st82" points="60.6,355.2 62.4,357.1 65,354.7 	"/>
	<circle id="XMLID_335_" class="st51" cx="62.5" cy="369.8" r="5.5"/>
	<polyline id="XMLID_334_" class="st83" points="60.6,368.8 62.4,370.7 65,368.3 	"/>
	<circle id="XMLID_162_" class="st63" cx="77" cy="356.3" r="5.5"/>
	<polyline id="XMLID_163_" class="st84" points="75.1,355.2 76.9,357.1 79.5,354.7 	"/>
	<circle id="XMLID_164_" class="st85" cx="91.5" cy="356.3" r="5.5"/>
	<polyline id="XMLID_165_" class="st86" points="89.7,355.2 91.5,357.1 94,354.7 	"/>
	<path id="XMLID_337_" class="st44" d="M78.1,364.9c-1.8,0-3.1,1.5-3.1,3.3c0,0.8,0.4,1.9,1.4,3.6c0.6,1.2,1.8,3,1.8,3
		s1.1-1.8,1.8-3c0.9-1.8,1.4-2.9,1.4-3.6C81.3,366.3,79.9,364.9,78.1,364.9z"/>
	<circle id="XMLID_336_" class="st87" cx="78.1" cy="368.1" r="0.9"/>
	<rect id="XMLID_180_" x="88.2" y="369.4" class="st3" width="0.3" height="0.3"/>
	<rect id="XMLID_166_" x="91.1" y="369.4" class="st3" width="0.3" height="0.3"/>
	<rect id="XMLID_167_" x="94" y="369.4" class="st3" width="0.3" height="0.3"/>
	<rect id="XMLID_168_" x="88.2" y="372.3" class="st3" width="0.3" height="0.3"/>
	<rect id="XMLID_169_" x="91.1" y="372.3" class="st3" width="0.3" height="0.3"/>
	<rect id="XMLID_170_" x="94" y="372.3" class="st3" width="0.3" height="0.3"/>
	<path id="XMLID_171_" class="st45" d="M88.3,367.5L88.3,367.5c-0.3,0-0.5-0.2-0.5-0.5v-2.2c0-0.3,0.2-0.5,0.5-0.5l0,0
		c0.3,0,0.5,0.2,0.5,0.5v2.2C88.8,367.3,88.6,367.5,88.3,367.5z"/>
	<path id="XMLID_172_" class="st45" d="M94.2,367.5L94.2,367.5c-0.3,0-0.5-0.2-0.5-0.5v-2.2c0-0.3,0.2-0.5,0.5-0.5l0,0
		c0.3,0,0.5,0.2,0.5,0.5v2.2C94.6,367.3,94.4,367.5,94.2,367.5z"/>
	<polyline id="XMLID_182_" class="st7" points="62.7,382.4 55.1,382.4 55.1,397.3 71.4,397.3 71.4,389.9 	"/>
	<line id="XMLID_184_" class="st88" x1="63.2" y1="390.6" x2="69.8" y2="384.1"/>
	<polygon id="XMLID_185_" class="st89" points="66.9,381.8 72,386.6 72,381.8 	"/>
	<polygon id="XMLID_186_" class="st90" points="79.7,397 81.2,392.6 84.1,395.6 	"/>
	
		<rect id="XMLID_183_" x="82.3" y="387.1" transform="matrix(0.7082 -0.706 0.706 0.7082 -249.4634 175.3083)" class="st90" width="10.1" height="4.7"/>
	<line id="XMLID_339_" class="st91" x1="83.6" y1="393.3" x2="90.9" y2="386.1"/>
	<path id="XMLID_338_" class="st89" d="M95.3,385.3l-1.4,1.4c-0.2,0.2-0.4,0.2-0.6,0l-3.2-3.2c-0.2-0.2-0.2-0.4,0-0.6l1.4-1.4
		c0.2-0.2,0.4-0.2,0.6,0l3.2,3.2C95.4,384.9,95.4,385.1,95.3,385.3z"/>
	<ellipse id="XMLID_414_" class="st9" cx="146.2" cy="45.7" rx="40.2" ry="39.9"/>
	<path id="XMLID_413_" class="st8" d="M172.2,69.9c0,0-32.8,0.2-32.8-0.1l1.7-4.4c0.5-1.1,1.3-2.1,2.2-2.7c1.6-1.1,4-2.8,5.2-2.8
		c1.7,0,6.3-1.1,6.3-1.1l1.4-0.5c0.5-0.2,0.9-0.5,1.1-0.9c0.5-0.9,1.1-1.7,1.4-3.3c0,0,0.9-1.6,0.5-2.7c0,0-1.4-3.6-2.5-4.3
		l-1.7-0.8l-1.4-2.5v-3.3l-1.6-2.8l-0.3-3v-2.1l0.5-3.6c0,0,0.2-2.2,0.5-3c0.3-0.6,0.2-1.9,0.8-3c0.6-1.3,1.4-2.2,1.9-2.8
		c0.6-0.8,1.1-2.4,1.9-2.8c0.6-0.5,1.4-0.9,1.7-1.3c0.3-0.3,1.3-1.4,1.9-1.4c0.6,0,0.2-0.5,3-0.5c1.4,0,2.1-0.2,2.1-0.2l1.7-0.2
		l1.7-0.2l2.8,0.4"/>
	<path id="XMLID_412_" class="st8" d="M163.5,69.9c0,0,32.9,0.2,32.9-0.1l-1.7-4.4c-0.5-1.1-1.3-2.1-2.2-2.7c-1.6-1.1-4-2.8-5.2-2.8
		c-1.7,0-6.3-1.1-6.3-1.1l-1.4-0.5c-0.5-0.2-0.9-0.5-1.1-0.9c-0.5-0.8-1.3-1.6-1.4-3.2c0,0-0.9-1.6-0.5-2.7c0,0,1.4-3.6,2.5-4.3
		l1.7-1.1l1.4-2.5v-3.4l1.6-2.8l0.3-3v-2.1l-0.5-3.5c0,0-0.2-2.2-0.5-3c-0.3-0.6-0.2-1.9-0.8-3c-0.6-1.3-1.4-2.2-1.9-2.8
		c-0.6-0.8-1.1-2.4-1.9-2.8c-0.6-0.5-1.4-0.9-1.7-1.3c-0.3-0.3-1.3-1.4-1.9-1.4c-0.6,0-0.2-0.5-3-0.5c-1.4,0-2.1-0.2-2.1-0.2
		l-1.7-0.2l-1.7-0.2l-2.8,0.8"/>
	<path id="XMLID_744_" class="st45" d="M14,406.4H7.4c-0.4,0-0.7,0.3-0.7,0.7v13c0,0.4,0.3,0.7,0.7,0.7H14c0.4,0,0.8-0.3,0.7-0.8
		v-12.9C14.7,406.7,14.4,406.4,14,406.4z M13.2,417.4h-5v-8.8h5V417.4z"/>
	<circle id="XMLID_418_" class="st57" cx="10.7" cy="419.1" r="0.7"/>
	<path id="XMLID_421_" class="st87" d="M29,410.4l-0.8-0.9c-0.5-0.7-0.4-1.7,0.3-2.2l0.3-0.3c0.7-0.5,1.7-0.4,2.2,0.3l0.8,0.9
		c0.5,0.7,0.4,1.7-0.3,2.2l-0.3,0.3C30.5,411.1,29.5,411,29,410.4z"/>
	<path id="XMLID_423_" class="st87" d="M36.8,420.4l-1.1-1.4c-0.4-0.6-0.3-1.4,0.3-1.8l0.8-0.6c0.6-0.4,1.4-0.3,1.8,0.3l1.1,1.4
		c0.4,0.6,0.3,1.4-0.3,1.8l-0.8,0.6C38,421,37.2,420.9,36.8,420.4z"/>
	<path id="XMLID_422_" class="st87" d="M27.9,407.9c0,0-0.4,0.4-0.3,0.9c0.9,6.6,1.3,8.8,9.1,12.2c0.3,0.1,0.7,0.2,0.9,0.1l-1.4-1.4
		l-0.8-1.2c0,0-4.8-1.2-5.6-7.2l-1.4-2.1L27.9,407.9z"/>
	<polygon id="XMLID_452_" class="st44" points="66.7,421.5 55,421.5 56.7,413.3 64.4,413.3 	"/>
	<rect id="XMLID_434_" x="57.5" y="415.1" class="st45" width="1.3" height="1.3"/>
	<rect id="XMLID_433_" x="60.1" y="415.1" class="st45" width="1.3" height="1.3"/>
	<rect id="XMLID_432_" x="62.6" y="415.1" class="st45" width="1.3" height="1.3"/>
	<rect id="XMLID_431_" x="57.5" y="417.1" class="st45" width="1.3" height="1.3"/>
	<rect id="XMLID_430_" x="60.1" y="417.1" class="st45" width="1.3" height="1.3"/>
	<rect id="XMLID_429_" x="62.6" y="417.1" class="st45" width="1.3" height="1.3"/>
	<rect id="XMLID_428_" x="57.5" y="419.1" class="st45" width="1.3" height="1.3"/>
	<rect id="XMLID_427_" x="60.1" y="419.1" class="st45" width="1.3" height="1.3"/>
	<rect id="XMLID_426_" x="62.6" y="419.1" class="st45" width="1.3" height="1.3"/>
	<path id="XMLID_425_" class="st44" d="M60.5,408.8c-4.4,0.2-4.5,0.7-5.9,1.1c-1.5,0.4-1.7,2.1-1.7,2.1c-0.1,1-0.3,1.8-0.3,2.2
		c0,0.2,0.3,0.3,0.6,0.3h1.7c0.1,0,0.5,0,0.5-0.2c0.1-0.6-0.2-1.7,0.2-2c1-0.9,3.1-1.3,5-1.3"/>
	<path id="XMLID_424_" class="st44" d="M60.5,411c1.9-0.1,4.4,0.6,5.2,1.3c0.3,0.3,0.2,1.3,0.3,1.9c0,0.3,0.4,0.3,0.5,0.3h1.4
		c0.3,0,0.8,0,0.8-0.2c0-0.4-0.3-1.3-0.4-2.3c0,0-0.3-1.6-1.7-2.1c-1.3-0.4-1.9-1-6.1-1.1"/>
	<g id="Layer_1_2_">
		<rect id="XMLID_463_" x="17.1" y="444.4" class="st92" width="0.9" height="0.9"/>
		<rect id="XMLID_462_" x="19" y="444.4" class="st92" width="0.9" height="0.9"/>
		<rect id="XMLID_461_" x="20.8" y="444.4" class="st92" width="0.9" height="0.9"/>
		<rect id="XMLID_460_" x="17.1" y="446.3" class="st92" width="0.9" height="0.9"/>
		<rect id="XMLID_459_" x="19" y="446.3" class="st92" width="0.9" height="0.9"/>
		<rect id="XMLID_458_" x="20.8" y="446.3" class="st92" width="0.9" height="0.9"/>
		<rect id="XMLID_457_" x="17.1" y="448.1" class="st92" width="0.9" height="0.9"/>
		<rect id="XMLID_456_" x="19" y="448.1" class="st92" width="0.9" height="0.9"/>
		<rect id="XMLID_455_" x="20.8" y="448.1" class="st92" width="0.9" height="0.9"/>
		<path id="XMLID_454_" class="st45" d="M23.5,453.5v-11.8h-2.7v-5.3l-9.1-3.5v4.3H7.1v16.4H5.3v0.9h1.8h8.2h0.9h7.3h1.8v-0.9
			L23.5,453.5L23.5,453.5z M12.6,434.2l7.3,2.8v4.7h-3.6v-4.6h-3.6L12.6,434.2L12.6,434.2z M8.9,439.9h5.4v0.9H8.9V439.9z
			 M8.9,442.6h5.4v0.9H8.9V442.6z M8.9,445.4h5.4v0.9H8.9V445.4z M9.9,453.5v-4.6h3.6v4.6H9.9z M21.7,453.5v-3.6h-0.9v3.6h-0.9v-3.6
			H19v3.6h-1v-3.6h-1v3.6h-0.9v-10.9h4.1h0.6l0,0h1.8v10.9H21.7z"/>
	</g>
	<g id="Layer_2_2_">
		<path id="XMLID_453_" class="st89" d="M16.2,437.2H7.1v16.4H5.3h0.1h1.8h8.2h0.9 M8.9,439.9h5.4v0.9H8.9V439.9z M8.9,442.6h5.4
			v0.9H8.9V442.6z M8.9,445.4h5.4v0.9H8.9V445.4z M9.9,453.5v-4.6h3.6v4.6H9.9z M16.2,453.5v-10.9"/>
	</g>
	<g id="Layer_2_3_">
		<path id="XMLID_481_" class="st44" d="M31.7,438.5c0,0,4.3-2.1,10.4-0.4v15.5c0,0.1-0.1,0.2-0.2,0.1c-0.7-0.3-3.3-1.3-9.5-0.3
			c0,0-0.5,0.3-0.8-0.4L31.7,438.5z"/>
		<path id="XMLID_480_" class="st44" d="M45.4,437.5l-3.1,0.6v15.4c0,0.1,0.1,0.2,0.2,0.2c1-0.3,5.1-1.3,9.7-0.1
			c0,0,0.8,0.2,0.7-0.3v-14.6l-2.8-0.9"/>
		<path id="XMLID_472_" class="st89" d="M45.8,437.4l0.1,10.7c0,0,0.1,0.1,0.2,0c0-0.1,1.6-4.4,1.6-4.4l1.5,4.4c0,0,0.2,0.3,0.3,0.1
			v-10.8C49.5,437.3,47.5,436.6,45.8,437.4z"/>
		<line id="XMLID_465_" class="st44" x1="34.1" y1="443.5" x2="39.8" y2="443.5"/>
		<line id="XMLID_464_" class="st44" x1="34.1" y1="447" x2="36.8" y2="447"/>
	</g>
	<path id="XMLID_488_" class="st44" d="M73.8,436.6H61.9c-0.4,0-0.8,0-1.1,0.2c-0.4,0.2-0.8,0.6-0.9,1.3v15v0.3c0,0,0,0.1,0,0.2
		c0,0.3,0.3,1,1.3,1.6c0.2,0.1,0.5,0.2,0.8,0.2c2.1,0,11.7,0,11.7,0s1.8,0,1.8-2.2v-10"/>
	<line id="XMLID_487_" class="st44" x1="62.8" y1="443.6" x2="70.7" y2="443.6"/>
	<line id="XMLID_486_" class="st44" x1="62.8" y1="447.6" x2="66.7" y2="447.6"/>
	<path id="XMLID_485_" class="st89" d="M68.2,452l2.1-4.4l0.8,0.3c0,0-0.8,1.6-0.4,3c0,0-0.8-0.1-2.2,1
		C68.4,451.9,68.3,452.1,68.2,452z"/>
	<path id="XMLID_484_" class="st89" d="M70.7,447l4.1-9.6c0,0,0.9-0.4,1.3-0.2c0,0,0.3,0,0.9,1.1l-5.4,9.2L70.7,447z"/>
	<path id="XMLID_483_" class="st89" d="M75.3,436.1l1.1-2.7c0,0,0.9-0.2,1.5-0.1c0,0,0.5,0,1,1.6l-1.4,2.4
		C77.6,437.3,77,436,75.3,436.1z"/>
	<path id="XMLID_482_" class="st89" d="M78.7,437.4l-2.3,3.7c0,0-1.2,0.1-0.5,1.2c0,0,1.2,0.3,0.9-0.8l1.9-3.1V437.4z"/>
	<circle id="XMLID_173_" class="st3" cx="90.6" cy="441.4" r="3.5"/>
	<circle id="XMLID_201_" class="st44" cx="15.3" cy="470.1" r="2.7"/>
	<circle id="XMLID_218_" class="st44" cx="6.9" cy="471.3" r="2.3"/>
	<path id="XMLID_220_" class="st44" d="M2.8,480.4c-0.2,0-0.3-0.2-0.3-0.3c0.2-1.1,1-4.8,4.1-4.8c0,0,1.7-0.1,2.7,2
		c0.3,0.5-1.2,2-0.4,3.2c0.1,0.1-1.3,0.1-1.5,0.1L2.8,480.4z"/>
	<circle id="XMLID_221_" class="st44" cx="23.5" cy="471.3" r="2.3"/>
	<path id="XMLID_245_" class="st44" d="M27.5,480.4c0.2,0,0.3-0.2,0.3-0.3c-0.2-1.1-1-4.8-4.1-4.8c0,0-1.7-0.1-2.7,2
		c-0.3,0.5,1.2,2,0.4,3.2c-0.1,0.1,1.3,0.1,1.5,0.1L27.5,480.4z"/>
	<g id="Layer_9">
		<line id="XMLID_296_" class="st93" x1="49.4" y1="473.5" x2="49.4" y2="473.5"/>
		<path id="XMLID_297_" class="st94" d="M41.1,478.1"/>
		<path id="XMLID_305_" class="st44" d="M35.8,478.1c0.4-0.5,1.1-1.3,1.5-2.4c0-0.1,0-0.1-0.1-0.1c-0.6-0.3-3.1-1.8-2.5-4.4
			c0.5-1.9,1.8-4.1,6.5-4c0,0,6.1,0,6.4,4.8c0,0,0,0,0,0.1c0,0.5-0.5,4.9-7.7,4.2h-0.1c-0.3,0.4-1.9,1.9-4,1.9
			C35.8,478.4,35.8,478.3,35.8,478.1z"/>
		<path id="XMLID_306_" class="st95" d="M52.5,480.4c0.6-0.3,3.1-1.8,2.5-4.4c-0.4-1.8-1.6-3.8-5.6-4c0.3,0.5,0.4,1.2,0.4,1.9
			c0,0,0,0,0,0.1c0,0.5-0.3,4.9-7.4,4.2v0.1c0.6,1.5,2.6,3.3,7.6,2.6l0.1,0.3c0.3,0.4,1.9,1.8,3.8,1.8c0.1,0,0.1-0.1,0.1-0.3
			C53.6,482.3,52.4,480.5,52.5,480.4L52.5,480.4z"/>
	</g>
	<path id="XMLID_246_" class="st96" d="M64,478.7c0-0.8,0.1-1.5,0.2-2.1s0.3-1.2,0.5-1.7s0.4-1,0.7-1.4s0.5-0.9,0.7-1.3
		c0.2-0.5,0.4-0.9,0.5-1.4s0.2-1.1,0.2-1.7s-0.1-1.1-0.2-1.5s-0.4-0.6-0.6-0.9c-0.3-0.3-0.5-0.4-0.9-0.6c-0.4-0.1-0.7-0.2-1.1-0.2
		s-0.7,0.1-1,0.2s-0.5,0.2-0.7,0.4s-0.4,0.3-0.5,0.5s-0.1,0.2-0.1,0.5s0,0.4,0.1,0.6s0.1,0.2,0.2,0.4c0.1,0.1,0.2,0.2,0.3,0.4
		s0.1,0.3,0.1,0.5c0,0.4-0.1,0.7-0.3,0.9s-0.4,0.3-0.7,0.3c-0.2,0-0.4,0-0.6-0.1c-0.2-0.1-0.3-0.2-0.5-0.4c-0.1-0.2-0.2-0.4-0.3-0.6
		s-0.1-0.5-0.1-0.8c0-0.7,0.1-1.3,0.4-1.8c0.3-0.5,0.7-0.9,1.1-1.2c0.5-0.3,1-0.6,1.5-0.7s1.1-0.2,1.7-0.2c0.7,0,1.4,0.1,2,0.3
		c0.6,0.2,1.1,0.5,1.6,0.8c0.4,0.4,0.8,0.8,1,1.3s0.4,1.1,0.4,1.8c0,0.6-0.1,1.2-0.4,1.8c-0.3,0.6-0.6,1.1-0.9,1.6s-0.8,1-1.2,1.5
		s-0.8,1-1.2,1.5s-0.7,1-0.9,1.6c-0.2,0.6-0.4,1.2-0.4,1.8L64,478.7L64,478.7z"/>
	<path id="XMLID_342_" class="st97" d="M80.2,478.1c0,0-3-5.4-3-8.1c0-1.4,0.9-6.5,6.9-5.9"/>
	<path id="XMLID_344_" class="st97" d="M85.5,477.9c0,0,1.2-1.4,1.7-3.4"/>
	<path id="XMLID_345_" class="st45" d="M85.4,482.4h-4.6c-0.7,0-1.2-0.6-1.2-1.2v-2.3c0-0.7,0.6-1.2,1.2-1.2h4.6
		c0.7,0,1.2,0.6,1.2,1.2v2.3C86.7,481.8,86.1,482.4,85.4,482.4z"/>
	<path id="XMLID_348_" class="st44" d="M91.9,404.4v4c0,0.2,0.2,0.5,0.5,0.5h3"/>
	<path id="XMLID_349_" class="st44" d="M95.9,411.4v-2.2c0,0,0-1.4,0-2.8c0-1.1-1-2.2-2.2-2.2H81.8c-0.9,0-1.8,0.8-1.8,1.8v15.6
		c0,0.6,0.5,1.3,1.3,1.3h4.2"/>
	<circle id="XMLID_350_" class="st90" cx="92.9" cy="419.1" r="5.6"/>
	<path id="XMLID_351_" class="st90" d="M94.2,422.3c0,0,0.2,0.6-0.2,0.9c0,0,0,0.2,0,0.5c0,0,1.3-0.2,2.1-1.1c0,0-0.5-0.4-0.6-0.4
		L95,422C94.8,422.1,94.7,421.9,94.2,422.3z"/>
	<path id="XMLID_352_" class="st90" d="M93.4,421.1c0,0,0,0.4-0.2,0.2c0,0-0.2-0.2-0.4-0.5c0,0-0.8-0.4-0.8-0.2c0,0-0.4-0.2-0.9-0.9
		c0,0-0.4-0.6-0.5-0.6l0.2,0.4h-0.2c0,0-0.9-0.9-0.9-1.8v-0.4h0.2v-0.2c0,0-0.6-0.2-0.5-0.5c0,0,0.6-1.3,2.1-1.7l0.2,0.2h0.4
		l0.2-0.2l-0.2-0.2c0,0,0.2,0,0.2,0.2l0.2,0.2h0.2c0,0,0.2,0.4,0.2,0c0,0,0.2-0.2,0.4,0v0.4l-0.2,0.5l-0.4,0.2v0.4l0.2,0.2
		c0,0,0.2,0.4,0.4-0.2c0,0-0.2-0.2,0-0.4c0,0-0.2-0.2,0.2-0.2c0,0,0.4,0,0.5,0.4c0,0,0.2,0.2,0.2-0.2c0,0,0.2,0.2,0.2,0.4l0.2,0.2
		l0.2,0.2l-1.3,1c0,0-0.4-0.2-0.4,0.6c0,0-0.4,0.5-0.2,1l-0.9,0.2c0,0,0.2,0.2,0.4,0.2c0.2,0.2,0.2,0.5,0.2,0.5L93.4,421.1z"/>
	<g id="XMLID_353_">
	</g>
	<g id="XMLID_354_">
	</g>
	<g id="XMLID_355_">
	</g>
	<g id="XMLID_356_">
	</g>
	<g id="XMLID_357_">
	</g>
	<g id="XMLID_358_">
	</g>
	<g id="XMLID_359_">
	</g>
	<g id="XMLID_360_">
	</g>
	<g id="XMLID_361_">
	</g>
	<g id="XMLID_362_">
	</g>
	<g id="XMLID_363_">
	</g>
	<g id="XMLID_364_">
	</g>
	<g id="XMLID_365_">
	</g>
	<g id="XMLID_366_">
	</g>
	<g id="XMLID_367_">
	</g>
	<path id="XMLID_368_" class="st98" d="M10.1,500.7C8.4,499.6,7,498,7,496.2c0-3.2,3.5-5.8,7.8-5.8s7.8,2.6,7.8,5.8
		c0,3.2-4.3,5.9-8.7,5.5"/>
	<path id="XMLID_369_" class="st98" d="M9.9,500.3c0,0,0.1,1.7-1.5,4.2c-0.2,0.3,0.1,0.7,0.5,0.6c1.6-0.8,4.6-2.2,5.8-3.5"/>
	<circle id="XMLID_370_" class="st89" cx="10.5" cy="496.3" r="1.3"/>
	<circle id="XMLID_371_" class="st89" cx="14.9" cy="496.3" r="1.3"/>
	<circle id="XMLID_372_" class="st89" cx="19.2" cy="496.3" r="1.3"/>
	<circle id="XMLID_373_" class="st3" cx="89.6" cy="508.1" r="1.8"/>
	<path id="XMLID_374_" class="st3" d="M86.5,515c-0.1,0-0.3-0.1-0.2-0.3c0.1-0.9,0.7-3.7,3.2-3.7c0,0,3-0.1,3.2,3.7
		c0,0.1-0.1,0.3-0.2,0.3H86.5z"/>
	<circle id="XMLID_375_" class="st3" cx="80.5" cy="505" r="2.5"/>
	<path id="XMLID_376_" class="st3" d="M76,514.9c-0.2,0-0.3-0.2-0.3-0.3c0.2-1.2,1.1-5.2,4.5-5.2c0,0,1.8-0.1,2.9,2.2
		c0.3,0.5-1.3,2.2-0.4,3.5c0.1,0.1-1.4,0.1-1.6,0.1L76,514.9z"/>
	<circle id="XMLID_377_" class="st3" cx="98.5" cy="505" r="2.5"/>
	<path id="XMLID_378_" class="st3" d="M102.9,514.9c0.2,0,0.3-0.2,0.3-0.3c-0.2-1.2-1.1-5.2-4.5-5.2c0,0-1.8-0.1-2.9,2.2
		c-0.3,0.5,1.3,2.2,0.4,3.5c-0.1,0.1,1.4,0.1,1.6,0.1L102.9,514.9z"/>
	<path id="XMLID_379_" class="st90" d="M89.8,501.2c-0.5,0-1,0-1.7-0.1H88c-0.2,0.3-1.5,1.4-3.2,1.4c0,0,0,0.1,0-0.1
		c0.3-0.4,1.1-1.2,1.4-2c0-0.1,0-0.1-0.1-0.1c-0.5-0.2-2.6-1-2.2-2.9c0.4-1.4,1.4-3,5.1-2.9c0,0,4.7,0,4.9,3.5c0,0,0.1,1.5-0.9,2.1"
		/>
	<path id="XMLID_380_" class="st90" d="M93.1,499.7c0,0,1,2,1.3,2.5c0.1,0.2-1.9-0.8-2.6-1.3c0,0-0.6,0.3-2.2,0.3"/>
	<g id="XMLID_397_">
		<g id="XMLID_398_">
			<path id="XMLID_399_" class="st65" d="M62.9,304c-1.9-1.9-3.8-4.1-3-4.9c1.2-1.2,2.3-2,0.1-4.8s-3.7-0.6-4.9,0.6
				c-1.4,1.4-0.1,6.6,5,11.8c5.2,5.2,10.3,6.5,11.8,5c1.2-1.2,3.4-2.6,0.6-4.9c-2.8-2.2-3.5-1.1-4.8,0.1
				C67.1,307.6,64.9,306,62.9,304z"/>
		</g>
	</g>
	<path id="XMLID_407_" class="st44" d="M96.5,543H81.3c-0.3,0-0.4-0.1-0.4-0.4v-12.2c0-0.3,0.1-0.4,0.4-0.4h15.2
		c0.3,0,0.4,0.1,0.4,0.4v12.2C97,542.9,96.7,543,96.5,543z"/>
	<rect id="XMLID_406_" x="84.3" y="534.6" class="st44" width="0.4" height="0.4"/>
	<rect id="XMLID_405_" x="88.4" y="534.6" class="st44" width="0.4" height="0.4"/>
	<rect id="XMLID_404_" x="92.6" y="534.6" class="st44" width="0.4" height="0.4"/>
	<rect id="XMLID_403_" x="84.3" y="538.7" class="st44" width="0.4" height="0.4"/>
	<rect id="XMLID_402_" x="88.4" y="538.7" class="st44" width="0.4" height="0.4"/>
	<rect id="XMLID_401_" x="92.6" y="538.7" class="st44" width="0.4" height="0.4"/>
	<path id="XMLID_400_" class="st45" d="M84.4,532.3L84.4,532.3c-0.4,0-0.6-0.3-0.6-0.8v-3.6c0-0.5,0.2-0.8,0.6-0.8l0,0
		c0.4,0,0.6,0.3,0.6,0.8v3.6C85,532,84.7,532.3,84.4,532.3z"/>
	<path id="XMLID_408_" class="st45" d="M92.7,532.3L92.7,532.3c-0.4,0-0.6-0.3-0.6-0.8v-3.6c0-0.5,0.2-0.8,0.6-0.8l0,0
		c0.4,0,0.6,0.3,0.6,0.8v3.6C93.2,532,93,532.3,92.7,532.3z"/>
	<polygon id="XMLID_450_" class="st44" points="21.5,518.8 21.5,532.4 10.7,527.7 6.6,527.7 6.6,523.6 10.6,523.6 	"/>
	<line id="XMLID_449_" class="st91" x1="23.5" y1="526.3" x2="27.7" y2="526.3"/>
	<line id="XMLID_448_" class="st91" x1="24.1" y1="522.2" x2="27.1" y2="519.5"/>
	<line id="XMLID_447_" class="st91" x1="24.1" y1="530.3" x2="27.1" y2="533.1"/>
	<polyline id="XMLID_446_" class="st44" points="20.1,531.6 19.1,534.1 12,531.2 12.7,529.1 	"/>
	<path id="XMLID_451_" class="st44" d="M56.7,534.4H42.2c-1.7,0-2.7-1.8-1.9-3.3l7.3-13c0.8-1.5,3-1.5,3.8,0l7.3,13
		C59.4,532.6,58.4,534.4,56.7,534.4z"/>
	<path id="XMLID_416_" class="st98" d="M54.8,497.2c-0.7,2.6-4.4,5.6-8.8,5.2"/>
	<path id="XMLID_415_" class="st98" d="M42,501.4c-1.7-1-3.1-2.8-3.1-4.6c0-3.3,3.5-5.9,7.9-5.9"/>
	<path id="XMLID_411_" class="st98" d="M41.8,500.9c0,0,0.2,1.8-1.5,4.3c-0.2,0.4,0.2,0.7,0.5,0.6c1.6-0.7,4.7-2.2,5.9-3.5"/>
	<line id="XMLID_410_" class="st98" x1="51.6" y1="489.2" x2="51.6" y2="497.6"/>
	<line id="XMLID_409_" class="st98" x1="55.7" y1="493.4" x2="47.4" y2="493.4"/>
	<path id="XMLID_385_" class="st99" d="M56.8,607.7c-0.7,2.6-4.4,5.6-8.8,5.2"/>
	<path id="XMLID_384_" class="st99" d="M44,611.9c-1.7-1-3.1-2.8-3.1-4.6c0-3.3,3.5-5.9,7.9-5.9"/>
	<path id="XMLID_383_" class="st99" d="M43.8,611.4c0,0,0.2,1.8-1.5,4.3c-0.2,0.4,0.2,0.7,0.5,0.6c1.6-0.7,4.7-2.2,5.9-3.5"/>
	<line id="XMLID_382_" class="st99" x1="53.6" y1="599.8" x2="53.6" y2="608.1"/>
	<line id="XMLID_381_" class="st99" x1="57.7" y1="604" x2="49.4" y2="604"/>
	<g id="Layer_19_12_">
		<path id="XMLID_489_" class="st5" d="M16,563.3H8.4c-0.4,0-0.7-0.3-0.7-0.7c-0.1,0.1-0.1-8.9-0.1-11.7c0-0.5,8.3,5.4,8.3,5.4
			c0.1,0.1,0.2,0.1,0.3,0l8.3-5.4v4.6"/>
		<path id="XMLID_478_" class="st5" d="M7.6,550.8v-1c0-0.4,0.3-0.6,0.6-0.6l15.5-0.1c0.4,0,0.7,0.3,0.8,0.7v0.9"/>
	</g>
	<line id="XMLID_490_" class="st5" x1="20.9" y1="556.2" x2="20.9" y2="564.1"/>
	<line id="XMLID_491_" class="st5" x1="16.7" y1="560.3" x2="25" y2="560.3"/>
	<polygon id="XMLID_174_" class="st90" points="88.8,463.4 83.8,468.9 85.3,468.9 83.8,474.5 88.8,468.7 87.3,468.7 	"/>
	<path id="XMLID_347_" class="st95" d="M64.4,479.8c0.2,0,0.4,0,0.6,0.1s0.3,0.2,0.5,0.3s0.2,0.3,0.3,0.5s0.1,0.4,0.1,0.6
		s0,0.4-0.1,0.6s-0.2,0.3-0.3,0.5s-0.3,0.2-0.5,0.3s-0.4,0.1-0.6,0.1c-0.4,0-0.8-0.1-1-0.4s-0.4-0.6-0.4-1c0-0.2,0-0.4,0.1-0.6
		s0.2-0.3,0.3-0.5s0.3-0.2,0.5-0.3C64,479.8,64.2,479.8,64.4,479.8z"/>
	<path id="XMLID_295_" class="st91" d="M84.1,454.4c-0.3,0-0.5-0.2-0.4-0.5c0.3-1.7,1.1-6.9,6.7-6.7c0,0,6.4-0.8,6.7,6.7
		c0,0.2-0.2,0.5-0.4,0.5H84.1z"/>
	<path id="XMLID_444_" class="st91" d="M10.7,480.4c-0.2,0-0.4-0.2-0.3-0.4c0.2-1.3,1.1-5.5,4.7-5.5c0,0,4.5-0.2,4.7,5.5
		c0,0.2-0.1,0.4-0.3,0.4H10.7z"/>
	<circle id="XMLID_468_" class="st8" cx="166.7" cy="139.7" r="12.2"/>
	<path id="XMLID_445_" class="st7" d="M144.1,184.9c-1,0-1.7-0.7-1.4-1.7c1-5.9,3.8-24.1,23.3-23.3c0,0,22.3-2.8,23.3,23.3
		c0,0.7-0.7,1.7-1.4,1.7H144.1z"/>
	<circle id="XMLID_475_" class="st8" cx="169.1" cy="231.1" r="5.6"/>
	<circle id="XMLID_474_" class="st8" cx="151.6" cy="233.6" r="4.8"/>
	<path id="XMLID_473_" class="st8" d="M142.9,252.6c-0.4,0-0.6-0.4-0.6-0.6c0.4-2.3,2.1-10,8.6-10c0,0,3.5-0.2,5.6,4.2
		c0.6,1-2.5,4.2-0.8,6.7c0.2,0.2-2.7,0.2-3.1,0.2L142.9,252.6z"/>
	<circle id="XMLID_471_" class="st8" cx="186.1" cy="233.6" r="4.8"/>
	<path id="XMLID_470_" class="st8" d="M194.4,252.6c0.4,0,0.6-0.4,0.6-0.6c-0.4-2.3-2.1-10-8.6-10c0,0-3.5-0.2-5.6,4.2
		c-0.6,1,2.5,4.2,0.8,6.7c-0.2,0.2,2.7,0.2,3.1,0.2L194.4,252.6z"/>
	<path id="XMLID_469_" class="st7" d="M159.4,252.6c-0.4,0-0.8-0.4-0.6-0.8c0.4-2.7,2.3-11.5,9.8-11.5c0,0,9.4-0.4,9.8,11.5
		c0,0.4-0.2,0.8-0.6,0.8H159.4z"/>
	<path id="XMLID_576_" class="st44" d="M88.2,550.8c-2.3,0-4,1.9-4,4.3c0,1,0.5,2.5,1.8,4.6c0.8,1.5,2.3,3.9,2.3,3.9
		s1.4-2.3,2.3-3.9c1.2-2.3,1.8-3.7,1.8-4.6C92.4,552.6,90.6,550.8,88.2,550.8z"/>
	<circle id="XMLID_575_" class="st87" cx="88.2" cy="554.9" r="1.2"/>
	<circle id="XMLID_578_" class="st44" cx="88.7" cy="578.8" r="5.6"/>
	<polyline id="XMLID_577_" class="st82" points="91.7,580.3 88.3,580.4 88.1,575.7 	"/>
	<g id="Layer_19_13_">
		<path id="XMLID_582_" class="st5" d="M16.2,587.5H8.6c-0.4,0-0.7-0.3-0.7-0.7c-0.1,0.1-0.1-8.9-0.1-11.7c0-0.5,8.3,5.4,8.3,5.4
			c0.1,0.1,0.2,0.1,0.3,0l8.3-5.4v4.6"/>
		<path id="XMLID_581_" class="st5" d="M7.8,575v-1c0-0.4,0.3-0.6,0.6-0.6l15.5-0.1c0.4,0,0.7,0.3,0.8,0.7v0.9"/>
		<path id="XMLID_583_" class="st5" d="M16.2,587.5h7.6c0.4,0,0.7-0.3,0.7-0.7c0.1,0.1,0.1-8.9,0.1-11.7c0-0.5-8.3,5.4-8.3,5.4
			c-0.1,0.1-0.2,0.1-0.3,0l-8.3-5.4v4.6"/>
	</g>
	<polygon id="XMLID_590_" class="st100" points="17.9,610.6 22.2,614.9 23.6,613.6 19.3,609.3 	"/>
	<ellipse id="XMLID_591_" class="st101" cx="15" cy="606.1" rx="5.2" ry="5.1"/>
	<path id="XMLID_615_" class="st5" d="M44.8,564.7h-2.3c-1.8,0-1.8-0.2-1.8-1.8v-11.1c0-1.6,0.2-1.8,1.8-1.8h2.1"/>
	<path id="XMLID_614_" class="st5" d="M53.9,550h2.8c1.7,0,1.8,0.2,1.8,1.7V563c0,1.3-0.1,1.7-1.8,1.7H54"/>
	<line id="XMLID_613_" class="st7" x1="43.4" y1="557.3" x2="47.5" y2="557.3"/>
	<path id="XMLID_612_" class="st7" d="M45.6,553.8l-2.7,3.3v0.1l2.7,3.1"/>
	<line id="XMLID_611_" class="st7" x1="55.6" y1="557.3" x2="51.2" y2="557.3"/>
	<path id="XMLID_610_" class="st7" d="M53.4,553.8l2.7,3.3v0.1l-2.7,3.1"/>
	<line id="XMLID_672_" class="st102" x1="125.7" y1="296.6" x2="119.6" y2="320.6"/>
	<line id="XMLID_671_" class="st102" x1="134.8" y1="296.6" x2="128.7" y2="320.6"/>
	<line id="XMLID_670_" class="st102" x1="116.1" y1="313.1" x2="135.2" y2="313.1"/>
	<line id="XMLID_625_" class="st102" x1="119" y1="304.1" x2="137.8" y2="304.1"/>
	<path id="XMLID_673_" class="st89" d="M122.1,358.9V344l-10.2-9.7h28.8l-11.4,10v9.6L122.1,358.9z M115.6,335.6l8.3,7.6v12.6
		l3.6-2.4l0.1-9.7l9.3-8h-20.8h-0.9h0.4L115.6,335.6z"/>
	<g id="XMLID_819_">
		<path id="XMLID_820_" class="st89" d="M179,311.8c-0.8,0-1.4-0.2-1.9-0.6s-0.8-1-0.9-1.7c-0.6,0.8-1.2,1.4-1.9,1.7
			s-1.4,0.5-2.2,0.5c-0.6,0-1.1-0.1-1.6-0.3c-0.4-0.2-0.8-0.5-1.1-0.9s-0.5-0.8-0.7-1.3c-0.1-0.5-0.2-1-0.2-1.6
			c0-0.8,0.2-1.7,0.5-2.6s0.8-1.6,1.4-2.3c0.6-0.7,1.4-1.3,2.4-1.7s2.1-0.7,3.3-0.7c0.7,0,1.3,0.1,1.8,0.2s1,0.3,1.4,0.5l-1.4,5.4
			c-0.2,0.8-0.3,1.4-0.3,1.9c0,0.4,0,0.7,0.1,0.9c0.1,0.2,0.2,0.4,0.4,0.6c0.2,0.1,0.3,0.2,0.5,0.3c0.2,0,0.4,0.1,0.7,0.1
			c0.5,0,1-0.1,1.4-0.4s0.8-0.7,1.2-1.2s0.6-1.1,0.8-1.8c0.2-0.7,0.3-1.5,0.3-2.4c0-1.4-0.2-2.6-0.7-3.6c-0.4-1-1.1-1.9-1.8-2.6
			c-0.8-0.7-1.7-1.2-2.7-1.6c-1.1-0.3-2.2-0.5-3.4-0.5c-1.3,0-2.6,0.3-3.8,0.8s-2.2,1.2-3.1,2.1c-0.9,0.9-1.6,2-2.1,3.2
			s-0.8,2.6-0.8,4c0,1.7,0.3,3.2,0.8,4.5s1.3,2.4,2.2,3.2c0.9,0.9,2,1.5,3.3,2c1.2,0.4,2.6,0.7,4,0.7c1.5,0,2.9-0.2,4-0.5
			c1.2-0.3,2.2-0.8,3-1.3c0.1-0.1,0.3-0.1,0.4-0.1c0.2,0,0.4,0.1,0.5,0.4l0.4,1c-1.1,0.7-2.3,1.3-3.7,1.7c-1.4,0.4-2.9,0.6-4.6,0.6
			c-1.7,0-3.3-0.3-4.8-0.8s-2.8-1.3-3.9-2.4s-2-2.3-2.6-3.8s-0.9-3.2-0.9-5.1c0-1.1,0.1-2.1,0.4-3.2c0.3-1,0.7-2,1.2-2.8
			s1.1-1.7,1.8-2.4c0.7-0.7,1.5-1.3,2.3-1.9c0.9-0.5,1.8-0.9,2.8-1.2s2-0.4,3.1-0.4c0.9,0,1.8,0.1,2.7,0.3c0.9,0.2,1.7,0.5,2.5,0.9
			s1.5,0.9,2.2,1.4c0.7,0.6,1.2,1.2,1.7,2c0.5,0.7,0.8,1.6,1.1,2.5s0.4,1.9,0.4,3s-0.2,2.1-0.5,3s-0.7,1.7-1.3,2.4s-1.2,1.2-1.9,1.6
			C180.7,311.6,179.9,311.8,179,311.8z M172.6,310c0.3,0,0.6,0,0.9-0.2c0.3-0.1,0.6-0.3,0.9-0.5c0.3-0.2,0.6-0.6,0.8-1
			s0.5-1,0.6-1.6l1.1-4.4c-0.4-0.1-0.8-0.1-1.3-0.1c-0.8,0-1.4,0.2-2.1,0.5c-0.6,0.3-1.2,0.7-1.6,1.2s-0.8,1.1-1.1,1.8
			s-0.4,1.3-0.4,2s0.2,1.3,0.5,1.7C171.5,309.8,172,310,172.6,310z"/>
	</g>
	<path id="XMLID_394_" class="st45" d="M86.3,612.9h-1.8v-5.1c0-0.3,0.2-0.5,0.5-0.5h0.8c0.3,0,0.5,0.2,0.5,0.5V612.9z"/>
	<path id="XMLID_396_" class="st45" d="M90.2,612.9h-1.8v-7.5c0-0.3,0.2-0.5,0.5-0.5h0.8c0.3,0,0.5,0.2,0.5,0.5V612.9z"/>
	<path id="XMLID_417_" class="st45" d="M94.5,612.9h-1.8v-9.4c0-0.3,0.2-0.5,0.5-0.5H94c0.3,0,0.5,0.2,0.5,0.5V612.9z"/>
	<path id="XMLID_708_" class="st103" d="M21.7,633.5c0.1,4.4-3.7,7.3-7.1,7.4c-4.1,0.1-7.9-2.4-7.9-6.8c0-4.4,3.1-8,7.9-8"/>
	<line id="XMLID_712_" class="st104" x1="20.8" y1="622.5" x2="20.8" y2="632"/>
	<line id="XMLID_711_" class="st104" x1="25.4" y1="627.3" x2="16" y2="627.3"/>
	<text id="XMLID_710_" transform="matrix(1 0 0 1 10.3306 638.3319)" class="st89 st105 st106">z</text>
	<path id="XMLID_707_" class="st107" d="M52.8,633.5c0.1,4.4-3.7,7.3-7.1,7.4c-4.1,0.1-7.9-2.4-7.9-6.8c0-4.4,3.1-8,7.9-8"/>
	<line id="XMLID_706_" class="st3" x1="51.9" y1="622.5" x2="51.9" y2="632"/>
	<line id="XMLID_705_" class="st44" x1="56.5" y1="627.3" x2="47.1" y2="627.3"/>
	<text id="XMLID_704_" transform="matrix(1 0 0 1 41.5286 638.3319)" class="st45 st105 st106">z</text>
	<path id="XMLID_684_" class="st108" d="M170.7,374.2c-1-0.5-1.7-1.6-1.7-2.8c0-1.7,1.4-3.1,3.1-3.1s3.1,1.4,3.1,3.1
		c0,1.2-0.7,2.3-1.7,2.8"/>
	<path id="XMLID_115_" class="st108" d="M170.7,376.2c-2-0.6-3.5-2.5-3.5-4.7c0-2.7,2.2-4.9,4.9-4.9s4.9,2.2,4.9,4.9
		c0,2.2-1.5,4.1-3.5,4.7"/>
	<path id="XMLID_804_" class="st98" d="M172.4,394.7v-1.5c0-1.4-0.6-2.8-1.7-3.8l-1.3-1.1c-0.8-0.6-1.4-1.4-1.8-2.3l-1.6-3.2
		c-0.1-0.2-0.1-0.5,0-0.7c0.2-0.5,0.7-1.3,1.7-1.2c0.2,0,0.4,0.2,0.6,0.4l2.2,3.6c0.1,0.2,0.5,0.1,0.5-0.1l-0.1-11.6
		c0-0.3,0.1-0.6,0.4-0.8c0.5-0.4,1.3-0.8,2.1,0c0.1,0.1,0.2,0.3,0.2,0.6v10.3v-3.6c0-1.1,0.5-1.7,1.6-1.7c0.4,0,1.2,0.1,1.2,0.5v4.9
		l0.2-3.6c0-0.6,0.5-0.9,1.1-0.9c0.5,0,1.3,0,1.4,0.2c0,0.2,0.1,0.3,0.1,0.5v3.7l0.2-2.8c0,0,0.7-0.6,1.4-0.5
		c0.8,0.1,1.2,0.4,1.2,1.2v5.9c0,0.6,0,1.6-0.2,2.7v0.1l0,0c-0.7,1.1-1,2.3-1.1,3.6v1.2"/>
	<rect id="XMLID_806_" x="114.5" y="372" class="st109" width="8.5" height="8.5"/>
	<rect id="XMLID_805_" x="129.3" y="372" class="st109" width="8.5" height="8.5"/>
	<rect id="XMLID_803_" x="114.5" y="385.7" class="st109" width="8.5" height="8.5"/>
	<rect id="XMLID_109_" x="129.3" y="385.7" class="st109" width="8.5" height="8.5"/>
	<path id="XMLID_811_" class="st110" d="M67,636.1l4.4-4.4c0.1-0.1,0.2,0,0.2,0l2.4,3.4c0.1,0.1,0.3,0.1,0.4,0l3.5-3.9"/>
	<circle id="XMLID_810_" class="st111" cx="67" cy="636.1" r="1.2"/>
	<circle id="XMLID_809_" class="st111" cx="71.6" cy="631.9" r="1.2"/>
	<circle id="XMLID_808_" class="st111" cx="74.3" cy="634.9" r="1.2"/>
	<circle id="XMLID_807_" class="st111" cx="78" cy="631.3" r="1.1"/>
	<line id="XMLID_815_" class="st3" x1="98.1" y1="634.6" x2="86.7" y2="634.6"/>
	<line id="XMLID_814_" class="st3" x1="100.5" y1="629.5" x2="100.5" y2="639.2"/>
	<polyline id="XMLID_812_" class="st45" points="95.7,629.5 100.5,634.6 95.7,639.2 	"/>
	<path id="XMLID_25_" class="st5" d="M44.8,588.5h-2.3c-1.8,0-1.8-0.2-1.8-1.8v-11.1c0-1.6,0.2-1.8,1.8-1.8h2.1"/>
	<path id="XMLID_24_" class="st5" d="M53.9,573.8h2.8c1.7,0,1.8,0.2,1.8,1.7v11.3c0,1.3-0.1,1.7-1.8,1.7H54"/>
	<line id="XMLID_23_" class="st7" x1="46.3" y1="581.2" x2="42.2" y2="581.2"/>
	<path id="XMLID_22_" class="st7" d="M44.1,577.7l2.7,3.3v0.1l-2.7,3.1"/>
	<line id="XMLID_21_" class="st7" x1="52.5" y1="581.2" x2="56.9" y2="581.2"/>
	<path id="XMLID_20_" class="st7" d="M54.7,577.7L52,581v0.1l2.7,3.1"/>
	<path id="XMLID_16_" class="st45" d="M79.5,51.7V41.3l-7.1-6.8h20.1l-8,7v6.7L79.5,51.7z M75,35.4l5.8,5.3v8.8l2.5-1.7l0.1-6.8
		l6.5-5.6H75.4h-0.6H75z"/>
	
		<ellipse transform="matrix(0.9981 -6.084640e-02 6.084640e-02 0.9981 -46.5329 4.0236)" class="st82" cx="42.8" cy="766.1" rx="2.6" ry="2.6"/>
	<path class="st82" d="M44.3,768.1c2.6,0.2,3.3,1.5,3.6,3.3c0,0,0.5,1.4-1.4,1.4l-8-0.1c-0.5,0-1-0.5-1-1l0,0c0-2,1.7-3.7,3.7-3.7"
		/>
	
		<ellipse transform="matrix(0.9981 -6.084640e-02 6.084640e-02 0.9981 -46.4038 4.4643)" class="st82" cx="50.1" cy="764.2" rx="2.6" ry="2.6"/>
	<path class="st82" d="M45.2,768.2c0.6-1.2,1.9-2,3.3-2"/>
	<path class="st82" d="M51.6,766.3c2.6,0.2,3.3,1.5,3.6,3.3c0,0,0.5,1.4-1.4,1.4l-5.9-0.1"/>
	
		<ellipse transform="matrix(0.9981 -6.084640e-02 6.084640e-02 0.9981 -46.5204 6.4349)" class="st82" cx="82.4" cy="767.1" rx="2.5" ry="2.5"/>
	<path class="st82" d="M83.8,769c2.5,0.2,3,1.4,3.4,3.1c0,0,0.4,1.4-1.3,1.3l-7.6-0.1c-0.5,0-0.9-0.4-0.9-0.9l0,0
		c0-1.9,1.6-3.5,3.5-3.5"/>
	
		<ellipse transform="matrix(6.084640e-02 -0.9981 0.9981 6.084640e-02 -693.3832 793.746)" class="st82" cx="75.1" cy="765.3" rx="2.5" ry="2.5"/>
	<path class="st82" d="M79.8,769.1c-0.6-1.1-1.7-1.9-3.1-1.9"/>
	<path class="st82" d="M73.8,767.3c-2.5,0.2-3,1.4-3.4,3.1c0,0-0.4,1.4,1.3,1.3l5.5-0.1"/>
	
		<ellipse transform="matrix(0.9981 -6.084640e-02 6.084640e-02 0.9981 -46.3979 6.8575)" class="st82" cx="89.4" cy="765.3" rx="2.5" ry="2.5"/>
	<path class="st82" d="M84.8,769.1c0.6-1.1,1.7-1.9,3.1-1.9"/>
	<path class="st82" d="M90.9,767.3c2.5,0.2,3,1.4,3.4,3.1c0,0,0.4,1.4-1.3,1.3l-5.5-0.1"/>
</g>
<polygon id="XMLID_627_" class="st112" points="60.1,659.4 60.3,667.3 68.4,667.3 65.6,664.3 71.8,657.4 75.2,660.1 75.3,652.3 
	67.1,652.3 69.7,654.8 63.5,662 "/>
<rect id="XMLID_626_" x="32.2" y="665.1" class="st113" width="18" height="1.1"/>
<rect id="XMLID_624_" x="34.2" y="655.4" class="st114" width="3.6" height="8.8"/>
<rect id="XMLID_623_" x="39.2" y="651.3" class="st115" width="3.6" height="12.9"/>
<rect id="XMLID_619_" x="44.2" y="653.4" class="st116" width="3.6" height="10.8"/>
<rect id="XMLID_618_" x="12.2" y="656.4" class="st117" width="10.8" height="10.4"/>
<rect id="XMLID_589_" x="12.2" y="651.3" class="st118" width="10.9" height="5.2"/>
<rect id="XMLID_588_" x="12.2" y="656.5" class="st119" width="10.8" height="10"/>
<line id="XMLID_587_" class="st120" x1="17.5" y1="657" x2="17.5" y2="667"/>
<line id="XMLID_586_" class="st120" x1="12" y1="661.5" x2="23" y2="661.5"/>
<rect id="XMLID_585_" x="7" y="651" class="st118" width="5.1" height="16"/>
<rect id="XMLID_584_" x="7" y="651" class="st121" width="16" height="5.5"/>
<line id="XMLID_580_" class="st122" x1="12.2" y1="651" x2="12.2" y2="667"/>
<line id="XMLID_532_" class="st122" x1="17.5" y1="651" x2="17.5" y2="657"/>
<line id="XMLID_531_" class="st122" x1="7" y1="656.5" x2="23" y2="656.5"/>
<line id="XMLID_530_" class="st122" x1="7" y1="661.5" x2="12" y2="661.5"/>
<rect id="XMLID_528_" x="7" y="651" class="st121" width="5.1" height="15.5"/>
<rect id="XMLID_663_" x="17.3" y="680.4" class="st117" width="5.4" height="11.4"/>
<rect id="XMLID_662_" x="11.9" y="680" class="st118" width="10.9" height="11.7"/>
<rect id="XMLID_656_" x="6.7" y="676" class="st123" width="5" height="16"/>
<rect id="XMLID_667_" x="12.2" y="676" class="st123" width="10.5" height="3.8"/>
<line id="XMLID_654_" class="st124" x1="11.9" y1="676" x2="11.9" y2="692"/>
<rect id="XMLID_669_" x="17.3" y="687.9" class="st57" width="5.4" height="4"/>
<line id="XMLID_665_" class="st124" x1="17.3" y1="687.8" x2="17.3" y2="692"/>
<rect id="XMLID_661_" x="17.3" y="680" class="st57" width="5.4" height="4"/>
<line id="XMLID_660_" class="st124" x1="17.3" y1="676" x2="17.3" y2="684.3"/>
<line id="XMLID_653_" class="st124" x1="23" y1="676" x2="6.3" y2="676"/>
<line id="XMLID_655_" class="st124" x1="23" y1="692" x2="6.3" y2="692"/>
<line id="XMLID_659_" class="st124" x1="23" y1="680" x2="6.3" y2="680"/>
<line id="XMLID_664_" class="st124" x1="11.9" y1="684" x2="6.3" y2="684"/>
<line id="XMLID_649_" class="st124" x1="23" y1="684" x2="17.3" y2="684"/>
<line id="XMLID_666_" class="st124" x1="11.9" y1="688.1" x2="6.3" y2="688.1"/>
<line id="XMLID_651_" class="st124" x1="22.9" y1="688.1" x2="16.9" y2="688.1"/>
<line id="XMLID_652_" class="st124" x1="22.7" y1="676" x2="22.7" y2="692"/>
<line id="XMLID_650_" class="st124" x1="6.7" y1="676" x2="6.7" y2="692"/>
<path id="XMLID_628_" class="st125" d="M86.1,654.2l5.5,5.3c0.1,0.1,0.1,0.2,0,0.3l-5.6,5.8c-0.1,0.1,0,0.4,0.2,0.4h3.5l5.8-6
	c0.1-0.1,0.1-0.2,0-0.2l-5.6-6h-3.4C86.1,653.7,85.9,654,86.1,654.2z"/>
<polyline id="XMLID_641_" class="st126" points="85.4,666.3 98,666.3 98,664 "/>
<polyline id="XMLID_647_" class="st126" points="85.4,653.3 98,653.4 98,655.4 "/>
<path id="XMLID_692_" class="st127" d="M43.4,689.7c-0.6,0.4-1.4,0.5-2.1,0.5c-3.3,0-6-2.7-6-6s2.7-6,6-6s6,2.7,6,6
	c0,1.5-0.8,3.1-1.6,4.1"/>
<path id="XMLID_691_" class="st128" d="M42.9,689.9c-0.4,0.2-1.2,0.3-1.6,0.3c-3.3,0-6-2.7-6-6s2.7-6,6-6s6,2.7,6,6
	c0,1.2-0.7,2.8-1.5,3.8"/>
<line id="XMLID_688_" class="st129" x1="42.3" y1="686.2" x2="48.9" y2="692"/>
<rect id="XMLID_701_" x="60" y="677.6" class="st130" width="6.1" height="6.1"/>
<rect id="XMLID_700_" x="69.3" y="677.6" class="st131" width="6.1" height="6.1"/>
<rect id="XMLID_699_" x="60" y="686.6" class="st132" width="6.1" height="6.1"/>
<rect id="XMLID_698_" x="69.3" y="686.6" class="st133" width="6.1" height="6.1"/>
<circle id="XMLID_682_" class="st134" cx="14.8" cy="711.1" r="9.8"/>
<circle id="XMLID_1_" class="st135" cx="41.2" cy="711.1" r="9.8"/>
<circle id="XMLID_2_" class="st136" cx="68.7" cy="711.1" r="9.8"/>
<circle id="XMLID_3_" class="st137" cx="94.2" cy="711.1" r="9.8"/>
<g id="XMLID_823_">
	<polygon id="XMLID_830_" class="st138" points="122.1,423.4 122.2,416.9 130.3,417 130.2,423.5 	"/>
	<path id="XMLID_829_" class="st138" d="M131.3,416.6l-4.4-5.1c-0.3-0.4-0.9-0.4-1.2,0l-4.5,5.1c-0.1,0.1,0,0.3,0.1,0.3h2.1h6.1h1.6
		C131.3,416.9,131.4,416.7,131.3,416.6z"/>
	<rect id="XMLID_828_" x="125" y="419.3" class="st138" width="2.4" height="4"/>
	<polyline id="XMLID_831_" class="st138" points="122.4,413.2 122.4,410.7 124.1,410.7 124.1,411.4 	"/>
</g>
<path id="XMLID_851_" class="st104" d="M180,334.6v4.9c0,0.2,0.2,0.6,0.6,0.6h3.7"/>
<path id="XMLID_850_" class="st104" d="M184.9,347.9v-7.4c0,0,0-1.7,0-3.4c0-1.3-1.2-2.7-2.7-2.7h-14.6c-1.1,0-2.2,1-2.2,2.2v19.1
	c0,0.7,0.6,1.6,1.6,1.6l8.7,0.3"/>
<line id="XMLID_855_" class="st90" x1="177.1" y1="346.6" x2="177.1" y2="351.9"/>
<line id="XMLID_854_" class="st90" x1="179.7" y1="349.3" x2="174.4" y2="349.3"/>
<ellipse id="XMLID_853_" class="st91" cx="177" cy="349.3" rx="4.9" ry="4.8"/>
<polygon id="XMLID_852_" class="st91" points="179.8,353.5 183.8,357.5 185.1,356.3 181.1,352.2 "/>
<path id="XMLID_771_" class="st91" d="M169.7,424.4h-2.1c-1.6,0-1.6-0.2-1.6-1.6v-9.9c0-1.4,0.2-1.6,1.6-1.6h1.8"/>
<path id="XMLID_770_" class="st91" d="M177.9,411.3h2.5c1.5,0,1.6,0.2,1.6,1.5v10c0,1.2-0.1,1.5-1.6,1.5H178"/>
<line id="XMLID_769_" class="st91" x1="168.5" y1="417.6" x2="172.2" y2="417.6"/>
<path id="XMLID_768_" class="st91" d="M170.5,414.5l-2.5,3v0.1l2.4,2.7"/>
<line id="XMLID_765_" class="st91" x1="179.4" y1="417.6" x2="175.5" y2="417.6"/>
<path id="XMLID_764_" class="st91" d="M177.4,414.5l2.5,3v0.1l-2.4,2.7"/>
<polyline class="st139" points="9.8,712.8 13.6,716 19.8,708 "/>
<g>
	<path class="st140" d="M40.5,715.2c0-0.1,0-0.3,0.1-0.4c0.1-0.1,0.1-0.2,0.2-0.3c0.1-0.1,0.2-0.2,0.3-0.2c0.1-0.1,0.3-0.1,0.4-0.1
		s0.3,0,0.4,0.1c0.1,0.1,0.2,0.1,0.3,0.2c0.1,0.1,0.2,0.2,0.2,0.3c0.1,0.1,0.1,0.3,0.1,0.4c0,0.1,0,0.3-0.1,0.4
		c-0.1,0.1-0.1,0.2-0.2,0.3c-0.1,0.1-0.2,0.2-0.3,0.2s-0.3,0.1-0.4,0.1s-0.3,0-0.4-0.1c-0.1-0.1-0.2-0.1-0.3-0.2
		c-0.1-0.1-0.2-0.2-0.2-0.3C40.5,715.5,40.5,715.4,40.5,715.2z M42.2,704.7v4.6c0,0.2,0,0.5,0,0.7s0,0.5,0,0.7s0,0.5-0.1,0.7
		c0,0.2-0.1,0.5-0.1,0.8h-1c0-0.3-0.1-0.5-0.1-0.8c0-0.2,0-0.5-0.1-0.7c0-0.2,0-0.5,0-0.7s0-0.5,0-0.7v-4.6H42.2z"/>
</g>
<line id="XMLID_657_" class="st141" x1="64.9" y1="707" x2="72.5" y2="715.7"/>
<line id="XMLID_648_" class="st141" x1="72.5" y1="707" x2="64.9" y2="715.7"/>
<g>
	<path class="st142" d="M93.1,705.5c0-0.3,0.1-0.5,0.3-0.7c0.2-0.2,0.4-0.3,0.7-0.3c0.3,0,0.6,0.1,0.8,0.3c0.2,0.2,0.3,0.5,0.3,0.7
		c0,0.3-0.1,0.5-0.3,0.7c-0.2,0.2-0.5,0.3-0.8,0.3s-0.5-0.1-0.7-0.3C93.2,706,93.1,705.8,93.1,705.5z M93.4,708.4h1.5v9.4h-1.5
		V708.4z"/>
</g>
<circle id="XMLID_5_" class="st143" cx="13.6" cy="732.2" r="3.5"/>
<path id="XMLID_8_" class="st144" d="M17.3,744.5H7.1c-0.3,0-0.5-0.2-0.4-0.5c0.3-1.7,1.2-8.2,6.8-7.5c0.6,0.1,0.7,0.1,1.2,0.3"/>
<path id="XMLID_7_" class="st145" d="M18.9,743l1.8,1.8c0.2,0.2,0.6,0.2,0.8,0l0,0c0.2-0.2,0.3-0.6,0-0.8l-1.8-1.8
	c-0.2-0.2-0.6-0.2-0.8,0l0,0C18.6,742.4,18.6,742.8,18.9,743z"/>
<ellipse id="XMLID_4_" class="st146" cx="17.2" cy="740.4" rx="2.6" ry="2.5"/>
<path id="XMLID_6_" class="st147" d="M40.7,743.9v-7.3l-5-4.7h14l-5.6,4.9v4.7L40.7,743.9z M37.6,732.5l4,3.7v6.1l1.7-1.2l0.1-4.7
	l4.5-3.9h-10L37.6,732.5L37.6,732.5L37.6,732.5z"/>
<path id="XMLID_11_" class="st87" d="M67.4,735.2l-0.5-0.8c-0.3-0.6,0-1.3,0.6-1.6l0.3-0.2c0.6-0.3,1.3,0,1.6,0.6l0.5,0.8
	c0.3,0.6,0,1.3-0.6,1.6l-0.3,0.2C68.4,736,67.7,735.8,67.4,735.2z"/>
<path id="XMLID_10_" class="st87" d="M71.7,744l-0.6-1.2c-0.2-0.5,0-1.1,0.5-1.3l0.7-0.3c0.5-0.2,1.1,0,1.3,0.5l0.6,1.2
	c0.2,0.5,0,1.1-0.5,1.3l-0.7,0.3C72.5,744.7,71.9,744.5,71.7,744z"/>
<path id="XMLID_9_" class="st87" d="M67,733.2c0,0-0.4,0.2-0.4,0.6c-0.4,5.1-0.4,6.8,4.9,10.7c0.2,0.1,0.5,0.3,0.7,0.2l-0.8-1.3
	l-0.4-1c0,0-3.4-1.7-3.1-6.3l-0.7-1.8L67,733.2z"/>
<path id="XMLID_13_" class="st45" d="M98.1,732.5h-5.8c-0.4,0-0.6,0.3-0.6,0.6v11.4c0,0.4,0.3,0.6,0.6,0.6h5.8
	c0.4,0,0.7-0.3,0.6-0.7v-11.3C98.7,732.8,98.4,732.5,98.1,732.5z M97.4,742.2H93v-7.7h4.4V742.2z"/>
<circle id="XMLID_12_" class="st57" cx="95.2" cy="743.7" r="0.6"/>
<circle id="XMLID_14_" class="st91" cx="126.2" cy="417.1" r="11.4"/>
<g id="Layer_11_1_">
	<path id="XMLID_15_" class="st148" d="M122.4,444.5v7.5c0,1.3,0.4,2.5,1.3,3.4c0.3,0.3,0.4,0.4,0.6,0.5c0,0,1.8,1.1,3.8,0.3
		c0.1-0.1,1-0.5,1.3-0.9c0.1-0.1,0.5-0.8,0.5-1.1c0.1-1.8,0.1-6.7,0.1-6.7v-5.1c0,0,0-0.8-0.3-1.3c-0.3-0.4-0.6-0.9-1.4-1.3
		c-0.6-0.3-1-0.4-1.3-0.4s-0.8,0-1.5,0.8c-0.1,0.1-0.5,0.5-0.5,1c0,0-0.1,7-0.1,9.4c0,0.5,0.1,1.5,1.4,1.4c0,0,1.3,0.1,1.5-1.5
		l0.1-5.7"/>
</g>
<line id="XMLID_620_" class="st149" x1="167" y1="439.7" x2="181.8" y2="456.6"/>
<line id="XMLID_630_" class="st149" x1="181.8" y1="439.7" x2="167" y2="456.6"/>
<polyline class="st150" points="166,483.1 173.8,472.9 180.4,483.2 "/>
<polyline class="st151" points="131.5,482.2 127.1,488.1 127.1,471.8 "/>
<polyline class="st151" points="119.2,479.8 123.5,474 123.5,490.2 "/>
<polyline class="st152" points="131.5,521.9 127.1,527.7 127.1,511.5 "/>
<polyline class="st152" points="119.2,519.5 123.5,513.6 123.5,529.9 "/>
<circle class="st153" cx="173.5" cy="498.8" r="1.6"/>
<circle class="st153" cx="173.5" cy="506" r="1.6"/>
<circle class="st153" cx="173.5" cy="512.8" r="1.6"/>
<path class="st5" d="M123.7,601.9l1.6-1.7c0,0,0.5-0.6,0.1-1.3s-1.6-2.4-1.6-2.4s-0.7-0.5-1.3,0.2s-1.9,1.6-2.2,2.9
	c-0.2,1.3-0.4,3.2,1.4,5.5s3.6,3.9,4.4,4.4c0.9,0.5,1,0.8,2.8,1.3c1.7,0.4,4.4-2.2,4.4-2.2s0.4-0.2,0-0.9c-0.3-0.5-1.8-1.8-1.8-1.8
	s-0.7-0.5-1.7,0.1c-0.9,0.6-0.8,0.6-1.1,0.8s-1.1,0.2-1.6,0c-0.5-0.3-3.4-3.8-3.4-3.8S123.5,602.4,123.7,601.9z"/>
<path class="st5" d="M175,608.8l-9.4,0.1c-0.6,0-1.2-0.5-1.2-1.2v-7.6c0-0.6,0.5-1.2,1.2-1.2l9.4-0.1c0.6,0,1.2,0.5,1.2,1.2v7.6
	C176.1,608.2,175.6,608.8,175,608.8z"/>
<polygon class="st5" points="176.2,603.6 182.4,599.6 182.4,607.8 176.2,604.4 "/>
<polyline class="st154" points="168,537.2 172,540.7 178.9,532 "/>
<g id="Layer_19_1_">
	<path id="XMLID_18_" class="st5" d="M119.9,571.7c0-0.4,7.5,4.8,7.5,4.8c0.1,0.1,0.2,0.1,0.3,0l7.5-4.8v10.7c0,0.3-0.3,0.5-0.5,0.5
		h-13.9c-0.3,0-0.6-0.3-0.6-0.6C119.9,582.4,119.9,574.2,119.9,571.7z"/>
	<path id="XMLID_17_" class="st5" d="M119.9,571.7v-0.9c0-0.3,0.3-0.5,0.5-0.5l13.9-0.1c0.3,0,0.6,0.3,0.8,0.6v0.9"/>
</g>
<path id="XMLID_30_" class="st5" d="M167,579.4c-1.5-1.2-2.9-2.8-2.9-4.4c0-3,3.3-5.4,7.3-5.4s7.3,2.4,7.3,5.4s-3.6,5.5-8,5.3"/>
<path id="XMLID_29_" class="st5" d="M166.7,578.8c0,0,0.1,1.6-1.4,3.9c-0.2,0.3,0.1,0.7,0.5,0.6c1.5-0.7,4.3-2.1,5.4-3.3"/>
<circle id="XMLID_27_" class="st89" cx="167.3" cy="575" r="1.2"/>
<circle id="XMLID_26_" class="st89" cx="171.4" cy="575" r="1.2"/>
<circle id="XMLID_19_" class="st89" cx="175.4" cy="575" r="1.2"/>
<path id="XMLID_64_" class="st99" d="M180.5,628.6c-0.7,2.4-4.1,5.2-8.2,4.9"/>
<path id="XMLID_39_" class="st99" d="M168.5,632.5c-1.6-0.9-2.9-2.6-2.9-4.3c0-3.1,3.3-5.5,7.4-5.5"/>
<path id="XMLID_35_" class="st99" d="M168.3,632c0,0,0.2,1.7-1.4,4c-0.2,0.4,0.2,0.7,0.5,0.6c1.5-0.7,4.4-2.1,5.5-3.3"/>
<line id="XMLID_32_" class="st99" x1="177.5" y1="621.2" x2="177.5" y2="628.9"/>
<line id="XMLID_31_" class="st99" x1="181.3" y1="625.1" x2="173.6" y2="625.1"/>
<path id="XMLID_70_" class="st98" d="M135.8,628.6c-0.7,2.4-4.1,5.2-8.2,4.9"/>
<path id="XMLID_69_" class="st98" d="M123.8,632.5c-1.6-0.9-2.9-2.6-2.9-4.3c0-3.1,3.3-5.5,7.4-5.5"/>
<path id="XMLID_67_" class="st98" d="M123.7,632c0,0,0.2,1.7-1.4,4c-0.2,0.4,0.2,0.7,0.5,0.6c1.5-0.7,4.4-2.1,5.5-3.3"/>
<line id="XMLID_66_" class="st98" x1="132.8" y1="621.2" x2="132.8" y2="628.9"/>
<line id="XMLID_65_" class="st98" x1="136.7" y1="625.1" x2="128.9" y2="625.1"/>
<path id="XMLID_74_" class="st138" d="M134.2,655.1c0.1,4-3.4,6.7-6.5,6.8c-3.8,0.1-7.2-2.2-7.2-6.2s2.8-7.3,7.2-7.3"/>
<line id="XMLID_73_" class="st104" x1="132.9" y1="645.7" x2="132.9" y2="653.8"/>
<line id="XMLID_72_" class="st104" x1="136.9" y1="649.8" x2="128.8" y2="649.8"/>
<g id="XMLID_71_" class="st17">
	<path class="st89" d="M124.5,658.2l3.2-4.2c0.3-0.4,0.6-0.7,0.9-1.1l0,0h-3.8v-1h5.4v0.8l-3.2,4.1c-0.3,0.4-0.6,0.7-0.9,1.1l0,0
		h4.1v1h-5.8v-0.7L124.5,658.2L124.5,658.2z"/>
</g>
<path id="XMLID_78_" class="st155" d="M178,655.1c0.1,4-3.4,6.7-6.5,6.8c-3.8,0.1-7.2-2.2-7.2-6.2s2.8-7.3,7.2-7.3"/>
<line id="XMLID_77_" class="st3" x1="176.8" y1="645.7" x2="176.8" y2="653.8"/>
<line id="XMLID_76_" class="st3" x1="180.7" y1="649.8" x2="172.7" y2="649.8"/>
<g id="XMLID_75_" class="st17">
	<path class="st45" d="M168.3,658.2l3.2-4.2c0.3-0.4,0.6-0.7,0.9-1.1l0,0h-3.8v-1h5.4v0.8l-3.2,4.1c-0.3,0.4-0.6,0.7-0.9,1.1l0,0
		h4.1v1h-5.8v-0.7L168.3,658.2L168.3,658.2z"/>
</g>
<line id="XMLID_80_" class="st156" x1="123.1" y1="677.2" x2="130.3" y2="684.7"/>
<line id="XMLID_79_" class="st156" x1="130.3" y1="677.1" x2="123.1" y2="684.7"/>
<g id="XMLID_81_">
	<path id="XMLID_82_" class="st157" d="M152.3,705.5c-0.5,0-0.8-0.1-1.1-0.3s-0.5-0.6-0.5-1c-0.3,0.5-0.7,0.8-1.1,1
		c-0.4,0.2-0.8,0.3-1.3,0.3c-0.3,0-0.6-0.1-0.9-0.2c-0.2-0.1-0.5-0.3-0.6-0.5c-0.2-0.2-0.3-0.5-0.4-0.7c-0.1-0.3-0.1-0.6-0.1-0.9
		c0-0.5,0.1-1,0.3-1.5s0.5-0.9,0.8-1.3c0.3-0.4,0.8-0.7,1.4-1c0.6-0.2,1.2-0.4,1.9-0.4c0.4,0,0.7,0.1,1,0.1c0.3,0.1,0.6,0.2,0.8,0.3
		l-0.8,3.1c-0.1,0.5-0.2,0.8-0.2,1.1c0,0.2,0,0.4,0.1,0.5s0.1,0.2,0.2,0.3c0.1,0.1,0.2,0.1,0.3,0.2c0.1,0,0.2,0.1,0.4,0.1
		c0.3,0,0.6-0.1,0.8-0.2s0.5-0.4,0.7-0.7s0.3-0.6,0.5-1s0.2-0.9,0.2-1.4c0-0.8-0.1-1.5-0.4-2.1c-0.2-0.6-0.6-1.1-1-1.5
		c-0.5-0.4-1-0.7-1.5-0.9c-0.6-0.2-1.3-0.3-1.9-0.3c-0.7,0-1.5,0.2-2.2,0.5s-1.3,0.7-1.8,1.2s-0.9,1.1-1.2,1.8s-0.5,1.5-0.5,2.3
		c0,1,0.2,1.8,0.5,2.6c0.3,0.7,0.7,1.4,1.3,1.8c0.5,0.5,1.1,0.9,1.9,1.1c0.7,0.2,1.5,0.4,2.3,0.4c0.9,0,1.7-0.1,2.3-0.3
		c0.7-0.2,1.3-0.5,1.7-0.7c0.1-0.1,0.2-0.1,0.2-0.1c0.1,0,0.2,0.1,0.3,0.2l0.2,0.6c-0.6,0.4-1.3,0.7-2.1,1c-0.8,0.2-1.7,0.3-2.6,0.3
		c-1,0-1.9-0.2-2.7-0.5s-1.6-0.7-2.2-1.4c-0.6-0.6-1.1-1.3-1.5-2.2c-0.3-0.9-0.5-1.8-0.5-2.9c0-0.6,0.1-1.2,0.2-1.8
		c0.2-0.6,0.4-1.1,0.7-1.6s0.6-1,1-1.4s0.9-0.7,1.3-1.1c0.5-0.3,1-0.5,1.6-0.7s1.1-0.2,1.8-0.2c0.5,0,1,0.1,1.5,0.2
		c0.5,0.1,1,0.3,1.4,0.5c0.5,0.2,0.9,0.5,1.3,0.8c0.4,0.3,0.7,0.7,1,1.1c0.3,0.4,0.5,0.9,0.6,1.4c0.2,0.5,0.2,1.1,0.2,1.7
		s-0.1,1.2-0.3,1.7s-0.4,1-0.7,1.4s-0.7,0.7-1.1,0.9C153.3,705.4,152.8,705.5,152.3,705.5z M148.7,704.5c0.2,0,0.3,0,0.5-0.1
		s0.3-0.2,0.5-0.3s0.3-0.3,0.5-0.6c0.1-0.2,0.3-0.6,0.3-0.9l0.6-2.5c-0.2-0.1-0.5-0.1-0.7-0.1c-0.5,0-0.8,0.1-1.2,0.3
		c-0.3,0.2-0.7,0.4-0.9,0.7s-0.5,0.6-0.6,1s-0.2,0.7-0.2,1.1c0,0.4,0.1,0.7,0.3,1C148,704.4,148.3,704.5,148.7,704.5z"/>
</g>
<line id="XMLID_176_" class="st158" x1="124.8" y1="695.3" x2="121.2" y2="709.5"/>
<line id="XMLID_175_" class="st158" x1="130.2" y1="695.3" x2="126.6" y2="709.5"/>
<line id="XMLID_84_" class="st158" x1="119.2" y1="705.1" x2="130.5" y2="705.1"/>
<line id="XMLID_83_" class="st158" x1="120.9" y1="699.7" x2="132" y2="699.7"/>
<path id="XMLID_178_" class="st158" d="M173.2,696c1.9,0,3.5,0.8,4.8,2c1.2,1.2,2,2.9,2,4.8s-0.8,3.5-2,4.8c-1.2,1.2-2.9,2-4.8,2
	c-1.9,0-3.5-0.8-4.8-2c-1.2-1.2-2-2.9-2-4.8s0.8-3.5,2-4.8C169.6,696.7,171.3,696,173.2,696z"/>
<polyline id="XMLID_177_" class="st159" points="176.4,704.4 174.5,704.4 172.5,704.4 172.4,701.8 172.3,699.1 "/>
<path id="XMLID_193_" class="st158" d="M131.5,735.7h-6.4h-6.4c-0.1,0-0.3-0.1-0.4-0.2c-0.1-0.1-0.1-0.2-0.1-0.4v-6.5v-6.5
	c0-0.1,0.1-0.3,0.1-0.4c0.1-0.1,0.2-0.1,0.4-0.1h4.9h4.9c0.1,0,0.3,0,0.5,0s0.4,0,0.4,0.1c0.3,0.3,0.7,0.6,1.1,1
	c0.4,0.4,0.8,0.8,1.1,1.2c0.1,0.1,0.1,0.1,0.2,0.2c0.1,0.1,0.1,0.1,0.2,0.2v5.4v5.4c0,0.1-0.1,0.3-0.1,0.4S131.6,735.7,131.5,735.7z
	"/>
<path id="XMLID_192_" class="st160" d="M128.6,726.8H125h-3.6c-0.1,0-0.2-0.1-0.3-0.1c-0.1-0.1-0.1-0.2-0.1-0.3v-2v-2
	c0-0.1,0.1-0.2,0.1-0.3s0.2-0.1,0.3-0.1h3.6h3.6c0.1,0,0.2,0.1,0.3,0.1s0.1,0.2,0.1,0.3v2v2c0,0.1-0.1,0.2-0.1,0.3
	C128.8,726.7,128.7,726.8,128.6,726.8z"/>
<path id="XMLID_191_" class="st160" d="M128.8,733.7H125h-3.9c-0.1,0-0.1,0-0.1-0.1s-0.1-0.1-0.1-0.1V732v-1.4c0-0.1,0-0.1,0.1-0.1
	s0.1-0.1,0.1-0.1h3.9h3.9c0.1,0,0.1,0,0.1,0.1s0.1,0.1,0.1,0.1v1.4v1.4c0,0.1,0,0.1-0.1,0.1S128.9,733.7,128.8,733.7z"/>
<polygon id="XMLID_190_" class="st161" points="125.8,725.3 125.8,724.8 125.8,724.3 126.7,724.3 127.6,724.3 127.6,724.8 
	127.6,725.3 126.7,725.3 "/>
<g>
	<path class="st162" d="M22.1,773.8H8.2c-0.9,0-1.7-0.7-1.7-1.7v-10.7c0-0.9,0.7-1.7,1.7-1.7h13.9c0.9,0,1.7,0.7,1.7,1.7v10.7
		C23.8,773,23,773.8,22.1,773.8z"/>
	<path class="st163" d="M23.8,761.6H6.5v-0.1c0-0.9,0.7-1.7,1.7-1.7h13.9C23,759.8,23.8,760.5,23.8,761.6L23.8,761.6z"/>
	<rect x="12.8" y="764.8" class="st163" width="8.4" height="1.2"/>
	<rect x="8.9" y="764.8" class="st163" width="2.3" height="1.2"/>
	<rect x="12.8" y="768.6" class="st163" width="8.4" height="1.2"/>
	<rect x="8.9" y="768.6" class="st163" width="2.3" height="1.2"/>
</g>
<polygon class="st164" points="117.4,762.8 123.3,760.5 129.4,762.9 123.7,765.4 "/>
<polyline class="st165" points="117.4,762.9 117.4,770.3 123.5,773.2 124.8,772.7 "/>
<path class="st166" d="M126,769.1l-0.2-0.2l-0.2-0.2c-0.1-0.1-0.1-0.2-0.1-0.2c0-0.1,0-0.2,0.1-0.2l0.2-0.3l0.2-0.3
	c0-0.1,0.1-0.1,0.2-0.1s0.1,0,0.2,0l0.3,0.2l0.3,0.2c0.1,0,0.2,0,0.3,0c0.1,0,0.1-0.1,0.2-0.2l0.1-0.4l0.1-0.4
	c0-0.1,0.1-0.1,0.1-0.1c0.1,0,0.1-0.1,0.2-0.1h0.4h0.4c0.1,0,0.2,0,0.2,0.1s0.1,0.1,0.2,0.2l0.1,0.4l0.1,0.4c0,0.1,0.1,0.1,0.2,0.2
	c0.1,0,0.2,0,0.3,0l0.3-0.1l0.3-0.1c0.1,0,0.1,0,0.2,0s0.1,0.1,0.2,0.1l0.2,0.2l0.2,0.2c0.1,0.1,0.1,0.1,0.1,0.2c0,0.1,0,0.1,0,0.2
	l-0.2,0.4l-0.2,0.4c0,0.1,0,0.2,0,0.2c0,0.1,0.1,0.2,0.1,0.2l0.3,0.2l0.3,0.2c0.1,0,0.1,0.1,0.1,0.2c0,0.1,0,0.1,0,0.2l-0.1,0.4
	l-0.1,0.4c0,0.1-0.1,0.1-0.1,0.2c-0.1,0.1-0.1,0.1-0.2,0.1H131h-0.3c-0.1,0-0.2,0.1-0.2,0.1s-0.1,0.2-0.1,0.3l0.1,0.4l0.1,0.4
	c0,0.1,0,0.1,0,0.2c0,0.1-0.1,0.1-0.1,0.1l-0.3,0.2l-0.3,0.2c-0.1,0-0.2,0.1-0.2,0.1c-0.1,0-0.2,0-0.2-0.1l-0.2-0.3l-0.2-0.3
	c-0.1-0.1-0.2-0.1-0.2-0.1c-0.1,0-0.2,0-0.2,0.1l-0.3,0.3l-0.3,0.3c-0.1,0-0.1,0.1-0.2,0.1c-0.1,0-0.1,0-0.2,0l-0.4-0.2l-0.4-0.2
	c-0.1,0-0.1-0.1-0.2-0.2c0-0.1-0.1-0.1-0.1-0.2l0.1-0.3l0.1-0.3c0-0.1,0-0.2-0.1-0.3s-0.1-0.1-0.2-0.1h-0.4h-0.4
	c-0.1,0-0.1-0.1-0.2-0.1c0,0-0.1-0.1-0.1-0.2l-0.1-0.3l-0.1-0.3c0-0.1,0-0.1,0-0.2c0-0.1,0.1-0.1,0.1-0.2l0.4-0.3l0.4-0.3
	c0.1-0.1,0.1-0.2,0.1-0.2C126.1,769.3,126,769.2,126,769.1z"/>
<path class="st166" d="M129.4,770.2c0,0.2-0.1,0.5-0.3,0.6c-0.2,0.2-0.4,0.3-0.6,0.3s-0.5-0.1-0.6-0.3c-0.2-0.2-0.3-0.4-0.3-0.6
	c0-0.2,0.1-0.5,0.3-0.6c0.2-0.2,0.4-0.3,0.6-0.3s0.5,0.1,0.6,0.3C129.3,769.7,129.4,770,129.4,770.2z"/>
<line class="st155" x1="129.4" y1="762.9" x2="129.3" y2="765.4"/>
<polyline class="st167" points="148.1,768.3 150.1,770.1 152.2,771.8 155.7,767.4 159.2,763 "/>
</svg>
